<svg xmlns="http://www.w3.org/2000/svg" xmlns:xlink="http://www.w3.org/1999/xlink" viewBox="-1583.133 2862.626 95.333 67.116">
  <defs>
    <style>
      .cls-1 {
        clip-path: url(#clip-path);
      }

      .cls-2 {
        fill: #58595b;
      }

      .cls-3 {
        clip-path: url(#clip-path-11);
      }

      .cls-4 {
        fill: url(#linear-gradient);
      }

      .cls-5 {
        clip-path: url(#clip-path-12);
      }

      .cls-6 {
        fill: url(#linear-gradient-2);
      }

      .cls-7 {
        clip-path: url(#clip-path-13);
      }

      .cls-8 {
        fill: url(#linear-gradient-3);
      }

      .cls-9 {
        fill: #fcaf17;
      }
    </style>
    <clipPath id="clip-path">
      <rect id="rectangle" width="95.333" height="67.116"/>
    </clipPath>
    <clipPath id="clip-path-11">
      <path id="path" d="M55.769,26.5l-6.058,1.594c-1.275.319-1.594,1.913-.159,3.348,1.275,1.275,3.029,1.594,3.826.478l2.87-4.623a.485.485,0,0,0,0-.638c0-.159-.159-.159-.478-.159h0" transform="translate(-48.608 -26.5)"/>
    </clipPath>
    <linearGradient id="linear-gradient" x1="-16.629" y1="5.901" x2="-16.507" y2="5.901" gradientUnits="objectBoundingBox">
      <stop offset="0" stop-color="#ffc20e"/>
      <stop offset="0.019" stop-color="#ffc00e"/>
      <stop offset="0.408" stop-color="#fba417"/>
      <stop offset="0.748" stop-color="#f8931c"/>
      <stop offset="1" stop-color="#f78d1e"/>
    </linearGradient>
    <clipPath id="clip-path-12">
      <path id="path-2" data-name="path" d="M52.738,3.915l-1.116.478a3.542,3.542,0,0,0-2.072,2.551,4.263,4.263,0,0,0,.319,2.87C50.984,11.886,58.636,23.2,58.636,23.2a3,3,0,0,1,.319,1.275,2.955,2.955,0,0,1-.319,1.116l-8.13,12.435a.485.485,0,0,0,0,.638c.159.159.319.319.638.159l6.377-1.754.957-.478a2.2,2.2,0,0,0,.478-.638l6.377-9.884a2.888,2.888,0,0,0-.159-3.348L54.013,4.553c-.159-.319-.319-.478-.638-.478h-.159c-.159-.319-.319-.159-.478-.159" transform="translate(-49.417 -3.875)"/>
    </clipPath>
    <linearGradient id="linear-gradient-2" x1="-4.957" y1="2.417" x2="-4.919" y2="2.417" xlink:href="#linear-gradient"/>
    <clipPath id="clip-path-13">
      <path id="path-3" data-name="path" d="M33.545,7.159a.854.854,0,0,0-.638.478L25.255,20.072c-.8,1.275-.957,2.232-.159,3.348l7.971,12.754c.159.319.319.478.638.478a.958.958,0,0,0,.638-.159l1.116-.638a3.831,3.831,0,0,0,1.116-5.261L31.95,23.42a2.021,2.021,0,0,1,0-2.87l4.623-7.014a3.809,3.809,0,0,0,.638-3.348A3.654,3.654,0,0,0,35.3,7.8l-1.116-.638c-.159,0-.319-.159-.478-.159l-.159.159" transform="translate(-24.571 -7)"/>
    </clipPath>
    <linearGradient id="linear-gradient-3" x1="-4.822" y1="2.702" x2="-4.777" y2="2.702" xlink:href="#linear-gradient"/>
  </defs>
  <g id="group-94" transform="translate(-1583.133 2862.626)">
    <g id="group" transform="translate(0 0)">
      <g id="group-2" data-name="group" class="cls-1">
        <path id="path-4" data-name="path" class="cls-2" d="M39.557,28.113a.957.957,0,1,0-.957-.957q.239.957.957.957" transform="translate(22.936 9.51)"/>
      </g>
      <g id="group-3" data-name="group" class="cls-1">
        <path id="path-5" data-name="path" class="cls-2" d="M36.359,40.207v.159l.159.159h.957c.159,0,.159,0,.159-.159V25.859c0-.159,0-.159-.159-.159h-.319c-.159.159-.638.319-.8.478a.156.156,0,0,0-.159.159v13.87Z" transform="translate(21.51 9.213)"/>
      </g>
      <g id="group-4" data-name="group" class="cls-1">
        <path id="path-6" data-name="path" class="cls-2" d="M38.8,38.543V38.7l.159.159h.8c.159,0,.159,0,.159-.159V28.659l-.159-.159h-.638a.156.156,0,0,0-.159.159.156.156,0,0,1-.159.159Z" transform="translate(23.055 10.877)"/>
      </g>
      <g id="group-5" data-name="group" class="cls-1">
        <path id="path-7" data-name="path" class="cls-2" d="M23.436,29.038v-.159l-.159-.159a11.447,11.447,0,0,0-2.71-.319c-2.87,0-3.667,1.594-3.667,2.71a3.031,3.031,0,0,0,2.232,2.71l1.116.478c.8.319,2.072.8,2.072,1.913,0,.8-.478,1.594-2.391,1.594a7.766,7.766,0,0,1-2.391-.319.343.343,0,0,0-.319.319v.8l.159.159a11.448,11.448,0,0,0,2.71.319c3.029,0,3.826-1.754,3.826-2.87,0-1.435-1.116-2.391-2.551-2.87l-.957-.478c-1.913-.8-2.072-1.435-2.072-1.913s.319-1.435,2.232-1.435a9.034,9.034,0,0,1,2.551.319h.319a.156.156,0,0,1,.159-.159v-.638" transform="translate(10.042 10.817)"/>
      </g>
      <g id="group-6" data-name="group" class="cls-1">
        <path id="path-8" data-name="path" class="cls-2" d="M34.464,39.241c-2.072,0-4.464-.478-4.464-3.029,0-2.232,2.232-3.667,5.739-3.667h.638v-.957c0-1.435-1.116-1.913-2.391-1.913a6.5,6.5,0,0,0-2.87.8H30.8a.557.557,0,0,1-.159-.319v-.638a.156.156,0,0,1,.159-.159.557.557,0,0,1,.319-.159,6.74,6.74,0,0,1,3.188-.8c1.116,0,2.71.319,3.188,1.594a5.664,5.664,0,0,1,.319,1.594v7.174l-.159.159a21.6,21.6,0,0,1-3.188.319m1.913-5.58H35.9c-1.754,0-4.464.319-4.464,2.551,0,1.594,1.594,1.913,2.87,1.913a9.09,9.09,0,0,0,2.072-.159Z" transform="translate(17.826 10.817)"/>
      </g>
      <g id="group-7" data-name="group" class="cls-1">
        <path id="path-9" data-name="path" class="cls-2" d="M45.364,39.241c-2.072,0-4.464-.478-4.464-3.029,0-2.232,2.232-3.667,5.739-3.667h.8v-.957c0-1.435-1.116-1.913-2.391-1.913a6.5,6.5,0,0,0-2.87.8h-.319a.557.557,0,0,1-.159-.319v-.638a.156.156,0,0,1,.159-.159.557.557,0,0,1,.319-.159,6.741,6.741,0,0,1,3.188-.8c1.116,0,2.71.319,3.188,1.594a5.665,5.665,0,0,1,.319,1.594v7.174l-.159.159a26.242,26.242,0,0,1-3.348.319m1.913-5.58H46.8c-1.754,0-4.464.319-4.464,2.551,0,1.594,1.594,1.913,2.87,1.913a9.09,9.09,0,0,0,2.072-.159Z" transform="translate(24.303 10.817)"/>
      </g>
      <g id="group-8" data-name="group" class="cls-1">
        <path id="path-10" data-name="path" class="cls-2" d="M12.687,40.485l-.957-3.348H5.991l-.957,3.348a.156.156,0,0,1-.159.159H3.759c-.159,0-.159,0-.159-.159v-.319c0-.159,3.667-12.435,4.623-14.507a.156.156,0,0,1,.159-.159H9.658a.156.156,0,0,1,.159.159c.8,2.072,4.464,14.348,4.623,14.507v.319a.557.557,0,0,1-.319.159H13.006a.494.494,0,0,1-.319-.159c.159.159.159,0,0,0M8.861,27.254,6.47,35.862h4.942Z" transform="translate(2.139 9.094)"/>
      </g>
      <g id="group-9" data-name="group" class="cls-1">
        <path id="path-11" data-name="path" class="cls-2" d="M25.229,40.132h.957a.586.586,0,0,0,.478-.159.156.156,0,0,0,.159-.159v-.8c0-.159,0-.159-.159-.159H26.5a3.51,3.51,0,0,1-1.275.159c-1.275,0-1.594-.638-1.594-1.913V30.886h2.71a.156.156,0,0,0,.159-.159.156.156,0,0,1,.159-.159v-.638a.156.156,0,0,0-.159-.159l-.159-.159h-2.71V27.059c0-.159,0-.159-.159-.159h-.319c-.159.159-.638.319-.8.478a.156.156,0,0,0-.159.159v9.725c.159,1.913.8,2.87,3.029,2.87" transform="translate(13.191 9.926)"/>
      </g>
      <g id="group-10" data-name="group" class="cls-1">
        <path id="path-12" data-name="path" class="cls-2" d="M30.664,29.775a1.437,1.437,0,0,1,.8.159h.319l.159-.159v-.957l-.159-.159c-.319,0-.638-.159-.957-.159a3.539,3.539,0,0,0-3.348,2.551V28.819l-.159-.159h-.957l-.159.159V38.7l.159.159h.8c.159,0,.159,0,.159-.159V33.6a3.719,3.719,0,0,1,.957-2.87,3.829,3.829,0,0,1,2.391-.957" transform="translate(15.568 10.877)"/>
      </g>
      <g id="group-11" data-name="group" class="cls-1">
        <path id="path-13" data-name="path" class="cls-2" d="M11.159,28.659c-.159,0-.159,0-.159.159v5.739a5.067,5.067,0,0,0,.319,2.232,4,4,0,0,0,3.826,2.391,5.092,5.092,0,0,0,2.232-.478c1.594-.957,1.754-2.551,1.754-4.464v-5.42l-.159-.159h-.8c-.159,0-.159,0-.159.159v6.058c0,1.594-.478,3.029-2.551,3.029-1.754,0-2.71-.957-2.71-3.029V28.659l-.159-.159H11.159Z" transform="translate(6.536 10.877)"/>
      </g>
    </g>
    <g id="group-12" data-name="group" transform="translate(77.49 36.188)">
      <g id="group-13" data-name="group" class="cls-3" transform="translate(0 0)">
        <path id="path-14" data-name="path" class="cls-4" d="M56.306,24.6l3.667,8.449-9.406,4.145L46.9,28.586Z" transform="translate(-49.622 -27.629)"/>
      </g>
    </g>
    <g id="group-14" data-name="group" transform="translate(78.781 0.12)">
      <g id="group-15" data-name="group" class="cls-5">
        <path id="path-15" data-name="path" class="cls-6" d="M68.183,0l15.3,35.391L56.7,47.029,41.4,11.638Z" transform="translate(-54.181 -6.178)"/>
      </g>
    </g>
    <g id="group-16" data-name="group" transform="translate(39.172 5.101)">
      <g id="group-17" data-name="group" class="cls-7">
        <path id="path-16" data-name="path" class="cls-8" d="M39.919,3.9,52.991,33.871,30.672,43.6,17.6,13.625Z" transform="translate(-28.714 -8.842)"/>
      </g>
    </g>
    <g id="group-18" data-name="group" transform="translate(0 0)">
      <g id="group-19" data-name="group" class="cls-1">
        <path id="path-17" data-name="path" class="cls-2" d="M16.464,45.17c0,.957,0,1.754-.957,2.232a2.41,2.41,0,0,1-1.275.319A2.022,2.022,0,0,1,12.159,46.6,3.108,3.108,0,0,1,12,45.329V42.3h.957v3.029c0,.638,0,1.594,1.275,1.594,1.116,0,1.116-.8,1.116-1.435V42.3H16.3v2.87Z" transform="translate(7.13 19.077)"/>
      </g>
      <g id="group-20" data-name="group" class="cls-1">
        <path id="path-18" data-name="path" class="cls-2" d="M10.864,45.17c0,.957,0,1.754-.957,2.232a2.41,2.41,0,0,1-1.275.319A2.022,2.022,0,0,1,6.559,46.6,3.962,3.962,0,0,1,6.4,45.329V42.3H7.516v3.029c0,.638,0,1.594,1.275,1.594,1.116,0,1.116-.8,1.116-1.435V42.3h.957v2.87Z" transform="translate(3.803 19.077)"/>
      </g>
      <g id="group-21" data-name="group" class="cls-1">
        <path id="path-19" data-name="path" class="cls-9" d="M40.391,47.517h-.478c-.8,0-.956-.319-.956-.957v-2.87h1.435v-.8H38.957V41.3H38.8l-.8.638h0v4.623c0,.638,0,1.435.638,1.754a2.369,2.369,0,0,0,.957.159h.957V48c0-.478,0-.478-.159-.478h0" transform="translate(22.58 18.482)"/>
      </g>
      <g id="group-22" data-name="group" class="cls-1">
        <path id="path-20" data-name="path" class="cls-9" d="M38.957,42.894V41.3H38.8l-.8.638h0v4.623" transform="translate(22.58 18.483)"/>
      </g>
      <g id="group-23" data-name="group" class="cls-1">
        <path id="path-21" data-name="path" class="cls-2" d="M12.391,47.517h-.478c-.8,0-.957-.319-.957-.957v-2.87h1.435v-.8H10.957V41.3H10.8l-.8.638h0v4.623c0,.638,0,1.435.638,1.754a2.369,2.369,0,0,0,.957.159h.957V48c0-.478,0-.478-.159-.478h0" transform="translate(5.942 18.482)"/>
      </g>
      <g id="group-24" data-name="group" class="cls-1">
        <path id="path-22" data-name="path" class="cls-2" d="M16.557,45.329a1.986,1.986,0,0,1,.638-1.754,1.348,1.348,0,0,1,.957-.319h.638V42.3h-.638a1.552,1.552,0,0,0-1.594,1.275V42.3H15.6v5.42h.957V45.329Z" transform="translate(9.27 19.077)"/>
      </g>
      <g id="group-25" data-name="group" class="cls-1">
        <path id="path-23" data-name="path" class="cls-9" d="M29.8,47.561h0c0,.159.159.159,0,0l.8.159h.159V42.3H29.8v5.261Z" transform="translate(17.707 19.077)"/>
      </g>
      <g id="group-26" data-name="group" class="cls-1">
        <path id="path-24" data-name="path" class="cls-9" d="M29.457,40.859h0L29.3,40.7l-.8.478h0v7.493h.957V40.859Z" transform="translate(16.935 18.126)"/>
      </g>
      <g id="group-27" data-name="group" class="cls-1">
        <path id="path-25" data-name="path" class="cls-9" d="M30.338,42.275c-.478,0-.638-.159-.638-.638s.159-.638.638-.638.638.159.638.638a.584.584,0,0,1-.638.638" transform="translate(17.648 18.304)"/>
      </g>
      <g id="group-28" data-name="group" class="cls-1">
        <path id="path-26" data-name="path" class="cls-9" d="M36.6,47.561h0c0,.159.159.159,0,0l.8.159h.159V42.3H36.6v5.261Z" transform="translate(21.748 19.077)"/>
      </g>
      <g id="group-29" data-name="group" class="cls-1">
        <path id="path-27" data-name="path" class="cls-9" d="M37.138,42.275c-.478,0-.638-.159-.638-.638s.159-.638.638-.638.638.159.638.638a.584.584,0,0,1-.638.638" transform="translate(21.688 18.304)"/>
      </g>
      <g id="group-30" data-name="group" class="cls-1">
        <path id="path-28" data-name="path" class="cls-9" d="M25.942,45.583a3.335,3.335,0,0,1-.478,2.232,2.389,2.389,0,0,1-1.913.8,2.566,2.566,0,0,1-2.391-1.594C21,46.858,21,46.539,21,45.9V40.8h1.116v5.1a2.7,2.7,0,0,0,.319,1.435,1.325,1.325,0,0,0,1.116.478,1.447,1.447,0,0,0,1.116-.478,2.143,2.143,0,0,0,.319-1.435V40.8h.957v4.783Z" transform="translate(12.478 18.185)"/>
      </g>
      <g id="group-31" data-name="group" class="cls-1">
        <path id="path-29" data-name="path" class="cls-9" d="M29.364,47.561h0c0,.159-.159.159,0,0l-.8.159h-.159V44.532c0-.957-.319-1.435-1.116-1.435a1.03,1.03,0,0,0-.8.319,2.282,2.282,0,0,0-.478,1.754V47.72H24.9V42.3h.957v1.116A1.58,1.58,0,0,1,27.451,42.3a1.964,1.964,0,0,1,1.116.319c.638.478.638,1.275.638,2.072v2.87Z" transform="translate(14.796 19.077)"/>
      </g>
      <g id="group-32" data-name="group" class="cls-1">
        <path id="path-30" data-name="path" class="cls-9" d="M32.1,43.416A1.734,1.734,0,0,1,33.691,42.3a1.32,1.32,0,0,1,1.435,1.116A1.693,1.693,0,0,1,36.88,42.3a1.785,1.785,0,0,1,1.435.638,3.153,3.153,0,0,1,.319,1.754V47.88h-.957V44.691c0-.478,0-.957-.319-1.116a1.205,1.205,0,0,0-.638-.159,1.078,1.078,0,0,0-.957.478,1.917,1.917,0,0,0-.319,1.275v2.71h-.957V44.851c0-1.116-.319-1.594-.956-1.594-.478,0-.8.478-.957.478a1.917,1.917,0,0,0-.319,1.275v2.71H31.3V42.3h.957v.159Z" transform="translate(18.599 19.077)"/>
      </g>
      <g id="group-33" data-name="group" class="cls-1">
        <path id="path-31" data-name="path" class="cls-9" d="M40.6,45.388a1.845,1.845,0,0,0,2.072,1.594,2.713,2.713,0,0,0,1.116-.159h.159v.8h0a3.51,3.51,0,0,1-1.275.159,2.656,2.656,0,0,1-2.87-2.87,2.432,2.432,0,0,1,2.391-2.71,2.139,2.139,0,0,1,2.232,2.391v.8H40.6Zm2.551-.638v-.319A1.29,1.29,0,0,0,41.872,43c-1.275,0-1.435,1.435-1.435,1.594h2.71Z" transform="translate(23.649 19.017)"/>
      </g>
      <g id="group-34" data-name="group" class="cls-1">
        <path id="path-32" data-name="path" class="cls-2" d="M18.5,45.388a1.845,1.845,0,0,0,2.072,1.594,2.713,2.713,0,0,0,1.116-.159h.159v.8h0a3.51,3.51,0,0,1-1.275.159,2.656,2.656,0,0,1-2.87-2.87,2.432,2.432,0,0,1,2.391-2.71,2.139,2.139,0,0,1,2.232,2.391v.8H18.5Zm2.551-.638v-.319A1.29,1.29,0,0,0,19.772,43c-1.275,0-1.435,1.435-1.435,1.594h2.71Z" transform="translate(10.517 19.017)"/>
      </g>
      <g id="group-35" data-name="group" class="cls-1">
        <path id="path-33" data-name="path" class="cls-9" d="M46.567,44.048a1.592,1.592,0,0,0-1.435-.8,2.422,2.422,0,0,0-2.232,2.71c0,1.435.8,2.87,2.232,2.87a1.643,1.643,0,0,0,1.594-1.116v.957h.957V40.7h-.159l-.957.478h0v2.87Zm-2.71,1.913c0-1.594.957-1.913,1.435-1.913.957,0,1.435,1.116,1.435,1.913,0,.159,0,1.913-1.435,1.913-1.116,0-1.435-1.116-1.435-1.913" transform="translate(25.491 18.126)"/>
      </g>
      <g id="group-36" data-name="group" class="cls-1">
        <path id="path-34" data-name="path" class="cls-9" d="M1.218,40.5H1.059l-.319.159a.877.877,0,0,0-.478.8,2.022,2.022,0,0,0,.159.957L1.7,44.485a.724.724,0,0,1,0,.8L.262,47.355a1.2,1.2,0,0,0,.319,1.594l.319.159h.159a.156.156,0,0,0,.159-.159L3.61,45.123a1.016,1.016,0,0,0,0-.957L1.378,40.5H1.218" transform="translate(0.057 18.007)"/>
      </g>
      <g id="group-37" data-name="group" class="cls-1">
        <path id="path-35" data-name="path" class="cls-2" d="M4.716,48.452h0l-.957.159H3.6V40.8H7.586v.957H4.716v2.551H7.267v.957H4.716Z" transform="translate(2.139 18.185)"/>
      </g>
    </g>
  </g>
</svg>
