<svg xmlns="http://www.w3.org/2000/svg" viewBox="-1321 395 31.714 30">
  <defs>
    <style>
      .cls-1 {
        fill: #fff;
      }
    </style>
  </defs>
  <path id="path-5" class="cls-1" d="M31.713,30H0V0H21.714a10.011,10.011,0,0,1,10,10V30ZM10.163,14.087V17.54h2.775v8.383H16.39V17.54h3.453V14.087H16.39v-1.77a1.269,1.269,0,0,1,.221-.753.6.6,0,0,1,.457-.31h2.775V7.86H17.069a3.749,3.749,0,0,0-1.608.354,4.235,4.235,0,0,0-1.313.959,4.5,4.5,0,0,0-.886,1.431,4.819,4.819,0,0,0-.325,1.771v1.712Z" transform="translate(-1321 395)"/>
</svg>
