<svg xmlns="http://www.w3.org/2000/svg" viewBox="-1613 12.391 292 71.003">
  <defs>
    <style>
      .cls-1 {
        fill: #fff;
      }

      .cls-2 {
        fill: none;
        stroke: #fff;
        stroke-width: 0.388px;
      }
    </style>
  </defs>
  <g id="group-7" transform="translate(-1613 12.391)">
    <path id="path" class="cls-1" d="M203.624,31.51c0-2.207-.081-2.6-2.74-2.995V28.2h7.092v.315c-2.5.315-2.5.946-2.5,2.995v7.171c0,3.94-.484,4.807-4.916,6.62l-.161-.315c3.063-1.418,3.3-3.546,3.3-7.171v-6.3Z" transform="translate(-38.885 -5.977)"/>
    <path id="path-2" data-name="path" class="cls-1" d="M212.994,35.947c-.322,1.024-1.29,3.073-1.29,4.1,0,1.261,1.451,1.261,2.337,1.34V41.7H208.4v-.315c1.854-.473,2.015-.867,2.66-2.443l2.337-5.91,1.209-3.31c.161-.552.484-1.024.242-1.418a3.968,3.968,0,0,0,1.531-1.1l4.513,11.821c.564,1.5.887,2.049,2.579,2.364V41.7h-6.045v-.315c.725-.158,1.612-.394,1.612-1.261a21.056,21.056,0,0,0-1.29-4.177h-4.755ZM215.25,29.8,213.316,35h4.11Z" transform="translate(-40.437 -5.765)"/>
    <path id="path-3" data-name="path" class="cls-1" d="M237.191,38.875l3.707-8.038c.484-1.1.806-2.128.322-2.443l.081-.315h4.513v.315c-1.29.236-2.1.709-2.015,2.128l.484,7.329c.242,2.758.242,3.231,2.418,3.625v.315h-6.77v-.315c1.612-.236,2.579-.394,2.5-2.207l-.564-8.826h0l-5.239,11.269h-.242l-4.916-10.8h0c-.322,3.073-.484,5.28-.645,8.432,0,.788,0,1.655,2.5,2.128v.315H227.6v-.315c1.854-.315,2.015-1.182,2.337-2.837l.725-5.674.242-2.758c.161-1.34-1.048-1.813-2.257-1.891V28h4.433v.236c-.484.473.081,1.655.242,1.97Z" transform="translate(-44.163 -5.935)"/>
    <path id="path-4" data-name="path" class="cls-1" d="M252.261,41.6c2.5-.315,2.5-.946,2.579-2.995V31.51c-.081-2.049-.081-2.679-2.579-2.995V28.2H263.3l-.242,3.073h-.322c-.161-2.6-2.1-2.6-4.111-2.6h-2.015v5.753h2.176c1.531,0,2.74-.158,2.982-1.813h.322V37.1h-.4c-.242-1.734-1.37-1.813-2.982-1.813h-2.176V38.6c0,1.182-.322,2.837,3.063,2.837,2.579,0,3.869-.946,4.352-3.467h.322a12.751,12.751,0,0,1-.725,4.019H252.1V41.6Z" transform="translate(-48.917 -5.977)"/>
    <path id="path-5" data-name="path" class="cls-1" d="M277.082,31.683h-.322c-.322-1.655-.887-3.231-2.9-3.231a2.27,2.27,0,0,0-2.418,2.207c0,3.467,6.448,3.389,6.448,7.408,0,2.6-2.66,3.94-5,3.94a7.166,7.166,0,0,1-3.627-1.024l-.564-3.389h.4c.484,1.97,1.934,3.861,4.191,3.861a2.457,2.457,0,0,0,2.74-2.443c0-3.546-6.287-3.231-6.287-7.25,0-2.364,2.418-3.861,4.594-3.861a6.457,6.457,0,0,1,2.982.788Z" transform="translate(-52.138 -5.913)"/>
    <path id="path-6" data-name="path" class="cls-1" d="M298.635,32.334h-.322c-.4-2.285-1.773-3.94-4.191-3.94-3.788,0-5.884,2.995-5.884,6.462a6.54,6.54,0,0,0,6.125,6.7c2.66,0,3.788-1.97,4.675-4.1l.322.158a18.938,18.938,0,0,1-1.128,3.625,9.515,9.515,0,0,1-4.191.867c-4.272,0-8.14-2.443-8.14-6.935,0-3.546,2.9-7.171,8.3-7.171a9.1,9.1,0,0,1,4.513,1.1v3.231Z" transform="translate(-55.476 -5.935)"/>
    <path id="path-7" data-name="path" class="cls-1" d="M318.852,34.992c0,4.334-3.224,7.092-7.576,7.092s-7.576-2.758-7.576-7.092c0-4.255,3.224-7.092,7.5-7.092,5.4,0,7.657,3.467,7.657,7.092M306.2,34.441c0,3.152,1.693,7.092,5.4,7.092,3.385,0,4.916-3.389,4.916-6.226-.081-3.546-2.176-6.935-5.319-6.935-3.546,0-5,3.389-5,6.068" transform="translate(-58.929 -5.913)"/>
    <path id="path-8" data-name="path" class="cls-1" d="M339.472,34.992c0,4.334-3.224,7.092-7.5,7.092-4.352,0-7.576-2.758-7.576-7.092,0-4.255,3.224-7.092,7.5-7.092,5.239,0,7.576,3.467,7.576,7.092m-12.734-.552c0,3.152,1.693,7.092,5.4,7.092,3.385,0,4.916-3.389,4.916-6.226-.081-3.546-2.176-6.935-5.319-6.935-3.546,0-5,3.389-5,6.068" transform="translate(-62.946 -5.913)"/>
    <path id="path-9" data-name="path" class="cls-1" d="M347.852,38.6c.081,2.049.081,2.679,2.74,2.995v.315H343.5V41.6c2.5-.315,2.5-.946,2.579-2.995V31.51C346,29.461,346,28.83,343.5,28.515V28.2h6.528v.315c-2.1.315-2.1.946-2.176,2.995ZM357.2,28.2v.315c-2.337.236-3.949,2.207-5.4,3.783l-1.934,2.049,4.191,4.492a10.694,10.694,0,0,0,4.594,3.073l-.081.315c-3.546-.315-4.191-.394-6.125-2.443l-4.191-4.492,3.3-3.546c2.176-2.364,1.773-3.073.4-3.152v-.315H357.2Z" transform="translate(-66.652 -5.977)"/>
    <path id="path-10" data-name="path" class="cls-1" d="M217.061,52.179v.315c-1.854.236-2.015,1.34-2.1,4.019l-.161,4.413c-.081,2.6-1.209,5.2-5.8,5.2-6.367,0-5.722-4.492-5.722-6.147V55.489c-.081-2.049-.081-2.679-2.579-2.995v-.315h7.092v.315c-2.66.394-2.74.788-2.74,2.995v4.1c0,.394-.645,5.6,5,5.6,4.433,0,4.03-4.177,4.03-6.62V56.434c0-2.522-.242-3.7-3.063-4.019V52.1h6.045Z" transform="translate(-38.944 -11.043)"/>
    <path id="path-11" data-name="path" class="cls-1" d="M235.541,62.66l-.081-7.329c0-1.891-.564-2.443-2.9-2.916V52.1H238.2v.315c-1.451.158-1.692.946-1.854,2.285-.322,2.207-.161,7.092-.081,11.427l-.242.079c-3.3-3.783-6.931-7.329-10.478-11.033v3.7c0,4.965-.161,5.989,2.9,6.62v.315h-6.125V65.5c2.74-.315,2.66-2.128,2.66-6.7V55.8c0-2.049-.322-2.837-2.982-3.389V52.1h3.385Z" transform="translate(-43.077 -11.043)"/>
    <path id="path-12" data-name="path" class="cls-1" d="M247.452,62.6c.081,2.049.081,2.679,2.579,2.995v.315H243.1V65.6c2.5-.315,2.5-.946,2.579-2.995V55.51c-.081-2.049-.081-2.679-2.579-2.995V52.2h6.931v.315c-2.5.315-2.5.946-2.579,2.995Z" transform="translate(-47.171 -11.064)"/>
    <path id="path-13" data-name="path" class="cls-1" d="M267.736,52.179v.315c-1.934.158-2.5,1.734-3.788,4.649L260,66.285h-.322L255,55.41c-.645-1.5-1.128-2.758-2.9-2.995V52.1h6.528v.315c-2.9.315-1.934,1.891-1.451,3.152l3.3,7.8L262.9,57.7c1.773-4.1,2.1-4.807-1.048-5.2v-.315h5.884Z" transform="translate(-48.917 -11.043)"/>
    <path id="path-14" data-name="path" class="cls-1" d="M271.68,65.6c2.5-.315,2.5-.946,2.579-2.995V55.51c-.081-2.049-.081-2.679-2.579-2.995V52.2h11.042l-.242,3.073h-.322c-.161-2.6-2.1-2.6-4.111-2.6h-2.015v5.753h2.176c1.531,0,2.74-.158,2.982-1.891h.322v4.492h-.322c-.242-1.734-1.37-1.813-2.982-1.813h-2.176v3.31c0,1.182-.322,2.837,3.063,2.837,2.579,0,3.869-.946,4.352-3.467h.322a12.748,12.748,0,0,1-.725,4.019H271.6V65.6Z" transform="translate(-52.701 -11.064)"/>
    <path id="path-15" data-name="path" class="cls-1" d="M290.24,56.253c0-3.073-.081-3.546-2.418-3.783v-.315l5-.158c5.158-.158,5.561,2.285,5.561,3.31,0,1.655-1.048,2.679-2.579,3.31l.081.158c1.612,2.679,3.546,6.147,6.931,6.856l-.081.315c-2.176-.079-3.788,0-5-1.261a16.613,16.613,0,0,1-2.821-4.019c-.806-1.655-1.531-1.182-2.982-1.419v3.231c0,2.206,0,2.6,2.821,2.995v.315H287.5v-.315c2.5-.315,2.5-.946,2.579-2.995V56.253Zm1.854,2.679c2.015,0,4.272-.867,4.272-3.152,0-2.364-2.1-3.31-4.272-3.31Z" transform="translate(-55.786 -11.019)"/>
    <path id="path-16" data-name="path" class="cls-1" d="M314.382,55.661h-.323c-.322-1.655-.887-3.231-2.9-3.231a2.27,2.27,0,0,0-2.418,2.207c0,3.467,6.448,3.389,6.448,7.408,0,2.6-2.66,3.94-5,3.94a7.165,7.165,0,0,1-3.627-1.024L306,61.572h.4c.484,1.97,1.934,3.861,4.191,3.861a2.457,2.457,0,0,0,2.74-2.443c0-3.546-6.286-3.231-6.286-7.329,0-2.364,2.418-3.861,4.594-3.861a6.458,6.458,0,0,1,2.982.788Z" transform="translate(-59.376 -10.979)"/>
    <path id="path-17" data-name="path" class="cls-1" d="M322.853,62.6c.08,2.049.08,2.679,2.579,2.995v.315H318.5V65.6c2.5-.315,2.5-.946,2.579-2.995V55.51C321,53.461,321,52.83,318.5,52.515V52.2h6.931v.315c-2.5.315-2.5.946-2.579,2.995Z" transform="translate(-61.802 -11.064)"/>
    <path id="path-18" data-name="path" class="cls-1" d="M340.833,51.379h.161l.322,3.783-.322.079c-.725-2.522-1.854-2.6-4.191-2.6h-1.209v9.3c0,2.522.161,3.152,2.9,3.467v.315H330.92v-.315c2.74-.315,2.9-1.024,2.9-3.467V52.561h-1.209c-2.337,0-3.466.079-4.191,2.6l-.322-.079.322-3.783h.161l.242.158c.484.473.564.473,1.289.473h9.43a1.419,1.419,0,0,0,1.29-.473Z" transform="translate(-63.663 -10.873)"/>
    <path id="path-19" data-name="path" class="cls-1" d="M358.1,52.2v.315c-1.773.158-2.66,1.1-3.546,2.522l-2.418,4.728v2.285c.081,2.285.081,3.152,2.74,3.546v.315H347.62V65.6c2.66-.394,2.66-1.261,2.74-3.546V60.475L348.185,55.9c-.806-1.655-1.37-3.152-3.385-3.389V52.2h5.723v.315c-1.693.236-1.451.867-.806,2.285l2.1,4.334,1.773-3.31c1.29-2.364,1.128-3.073-.645-3.31V52.2Z" transform="translate(-66.904 -11.064)"/>
    <rect id="rectangle" class="cls-1" width="125.569" height="0.394" transform="translate(164.336 58.788)"/>
    <path id="path-20" data-name="path" class="cls-1" d="M205.685,80.4h1.209l3.385,7.565h-1.451l-.806-1.812h-3.546l-.806,1.812H202.3Zm1.934,4.571-1.29-2.995-1.29,2.995Z" transform="translate(-39.254 -17.041)"/>
    <path id="path-21" data-name="path" class="cls-1" d="M213.7,84.734V80.4h1.37v4.255c0,1.419.725,2.128,1.934,2.128a1.807,1.807,0,0,0,1.934-2.049V80.4h1.37v4.255a3.061,3.061,0,0,1-3.3,3.389,2.967,2.967,0,0,1-3.3-3.31" transform="translate(-41.465 -17.041)"/>
    <path id="path-22" data-name="path" class="cls-1" d="M223.7,86.841l.806-.946a3.454,3.454,0,0,0,2.418.946c.806,0,1.37-.394,1.37-.946h0c0-.552-.322-.788-1.692-1.182-1.612-.394-2.579-.867-2.579-2.207h0A2.371,2.371,0,0,1,226.6,80.3a3.98,3.98,0,0,1,2.74.946l-.725,1.024a3.846,3.846,0,0,0-2.1-.788c-.806,0-1.209.394-1.209.867h0c0,.552.322.867,1.773,1.182,1.612.394,2.5.946,2.5,2.207h0c0,1.418-1.128,2.207-2.74,2.207a4.405,4.405,0,0,1-3.143-1.1" transform="translate(-43.406 -17.02)"/>
    <path id="path-23" data-name="path" class="cls-1" d="M234.818,81.682H232.4V80.5h6.206v1.182h-2.418v6.3h-1.37Z" transform="translate(-45.094 -17.062)"/>
    <path id="path-24" data-name="path" class="cls-1" d="M242.181,80.5h3.385a3.389,3.389,0,0,1,2.176.709,2.175,2.175,0,0,1,.645,1.576h0a2.237,2.237,0,0,1-1.854,2.285l2.1,2.837h-1.612l-1.854-2.6H243.47v2.679H242.1V80.5Zm3.3,3.7c.967,0,1.612-.473,1.612-1.261h0c0-.788-.564-1.261-1.612-1.261h-1.934V84.2Z" transform="translate(-46.977 -17.062)"/>
    <path id="path-25" data-name="path" class="cls-1" d="M254.766,80.4h1.209l3.385,7.565h-1.451l-.806-1.812h-3.627l-.806,1.812H251.3ZM256.7,84.97l-1.29-2.995-1.289,2.995Z" transform="translate(-48.762 -17.041)"/>
    <path id="path-26" data-name="path" class="cls-1" d="M263.2,80.5h1.37v6.226h4.03v1.261h-5.4Z" transform="translate(-51.071 -17.062)"/>
    <rect id="rectangle-2" data-name="rectangle" class="cls-1" width="1.37" height="7.486" transform="translate(219.222 63.438)"/>
    <path id="path-27" data-name="path" class="cls-1" d="M278.966,80.4h1.209l3.385,7.565h-1.451l-.806-1.812h-3.627l-.806,1.812H275.5ZM280.9,84.97l-1.29-2.995-1.289,2.995Z" transform="translate(-53.458 -17.041)"/>
    <path id="path-28" data-name="path" class="cls-1" d="M180.756,42.446a9.406,9.406,0,0,1-8.221,0,9.406,9.406,0,0,0-8.221,0,9.406,9.406,0,0,1-8.221,0,9,9,0,0,0-4.11-.946H151.5v3.7a11.382,11.382,0,0,0,.081,1.655h.4a9,9,0,0,1,4.11.946,9.406,9.406,0,0,0,8.221,0,9.406,9.406,0,0,1,8.221,0,9.406,9.406,0,0,0,8.221,0,9,9,0,0,1,4.11-.946h.4c0-.552.081-1.1.081-1.655V41.5h-.484a8.753,8.753,0,0,0-4.11.946" transform="translate(-29.396 -8.796)"/>
    <path id="path-29" data-name="path" class="cls-1" d="M176.9,57.091a9,9,0,0,1-4.11-.946,9.406,9.406,0,0,0-8.221,0,9.406,9.406,0,0,1-8.221,0A7.794,7.794,0,0,0,152.8,55.2a19.676,19.676,0,0,0,3.063,6.068c.161.079.4.158.564.236a9.406,9.406,0,0,0,8.221,0,9.406,9.406,0,0,1,8.221,0,9.406,9.406,0,0,0,8.221,0,3.976,3.976,0,0,1,.564-.236,18.83,18.83,0,0,0,3.063-6.068,7.793,7.793,0,0,0-3.546.946,10.292,10.292,0,0,1-4.272.946" transform="translate(-29.649 -11.7)"/>
    <path id="path-30" data-name="path" class="cls-1" d="M175.194,69.746a9.406,9.406,0,0,0-8.221,0,5.859,5.859,0,0,1-1.773.63c2.337,1.576,4.513,2.679,5.884,3.783,1.289-1.1,3.546-2.207,5.883-3.783a7.585,7.585,0,0,1-1.773-.63" transform="translate(-32.055 -14.582)"/>
    <path id="path-31" data-name="path" class="cls-1" d="M180.756,28.846a9.406,9.406,0,0,1-8.221,0,9.406,9.406,0,0,0-8.221,0,9.406,9.406,0,0,1-8.221,0,9,9,0,0,0-4.11-.946H151.5v5.359h.484a9,9,0,0,1,4.11.946,9.406,9.406,0,0,0,8.221,0,9.406,9.406,0,0,1,8.221,0,9.406,9.406,0,0,0,8.221,0,9,9,0,0,1,4.11-.946h.484V27.9h-.484a8.753,8.753,0,0,0-4.11.946" transform="translate(-29.396 -5.913)"/>
    <path id="path-32" data-name="path" class="cls-1" d="M169.434,11.9a5.511,5.511,0,0,0-5.561,5.438,2.626,2.626,0,0,0,.081.788,7.061,7.061,0,0,0,1.37-.552,9.406,9.406,0,0,1,8.221,0,7.062,7.062,0,0,0,1.37.552c0-.236.081-.552.081-.788a5.564,5.564,0,0,0-5.561-5.438m-7.576,1.576c-.081,0-.242.079-.322.079a3.378,3.378,0,0,1-.887.079,1.222,1.222,0,0,1-.806-.236c-.081.315.322.63.645.867a2.436,2.436,0,0,0,.645.315c.081,0,.161.079.242.079a1.452,1.452,0,0,1,.725.473c.242.236.484.552.725.788a5.978,5.978,0,0,1,.967-2.207,4.33,4.33,0,0,0-.967-.236h-.967m20.23,3.861-6.125-1.1a4.742,4.742,0,0,1,.081,1.1,5.09,5.09,0,0,1-.081,1.1Zm-19.262-1.024-6.125,1.1,6.125,1.1a4.743,4.743,0,0,1-.081-1.1,4.413,4.413,0,0,1,.081-1.1m14.668-1.5a.407.407,0,0,0,.161-.315,3.972,3.972,0,0,1,.564-.63c.242-.158.484-.394.725-.394-.161-.236-.725-.236-1.048-.158a2.6,2.6,0,0,0-.725.236c-.081.079-.161.079-.242.158a2.907,2.907,0,0,1-.887.236,5.44,5.44,0,0,1-1.128-.079h0a9.207,9.207,0,0,1,.967,2.207,4.85,4.85,0,0,0,.887-.473,3.417,3.417,0,0,0,.725-.788m-11.928-2.837L161.7,9.851l2.1,3.783a11.549,11.549,0,0,1,1.773-1.655m9.349,1.655,2.176-3.783L173.3,11.978a10.634,10.634,0,0,1,1.612,1.655m-4.433-2.758L169.434,0l-1.128,10.875a5.44,5.44,0,0,1,1.128-.079c.322,0,.725.079,1.048.079m-5-1.182c.081.079.081.158.161.236a2.747,2.747,0,0,1,.242.867,5.089,5.089,0,0,1-.081,1.1h0a9.643,9.643,0,0,1,2.257-.946c-.161-.236-.242-.552-.484-.867a3.042,3.042,0,0,0-.725-.709.422.422,0,0,0-.322-.158c-.242-.158-.4-.394-.645-.552-.161-.236-.4-.473-.4-.709-.242.158-.242.709-.161,1.024a2.258,2.258,0,0,0,.161.709m7.818,1.261a2.193,2.193,0,0,0,0-1.024c0-.079-.081-.236-.081-.315a3.162,3.162,0,0,1-.081-.867,1.159,1.159,0,0,1,.242-.788c-.322-.079-.645.315-.887.63a2.338,2.338,0,0,0-.322.63c0,.079-.081.158-.081.236a2.09,2.09,0,0,1-.484.788c-.242.236-.564.473-.806.709h0a6.259,6.259,0,0,1,2.257.946l.242-.946" transform="translate(-30.406)"/>
    <line id="line" class="cls-2" y2="35.62" transform="translate(103.083 35.226)"/>
    <path id="path-33" data-name="path" class="cls-1" d="M4.352,71.98v-.946H7.979v3.152a4.588,4.588,0,0,1-1.693.946,4.824,4.824,0,0,1-1.854.315A4.858,4.858,0,0,1,2.1,74.9,3.108,3.108,0,0,1,.564,73.4,5.329,5.329,0,0,1,0,71.113a4.58,4.58,0,0,1,.564-2.285A3.276,3.276,0,0,1,2.1,67.251,5.284,5.284,0,0,1,4.352,66.7a3.812,3.812,0,0,1,1.693.315,3.194,3.194,0,0,1,1.209.788,3.005,3.005,0,0,1,.645,1.34l-1.048.236a6.315,6.315,0,0,0-.484-1.024,1.478,1.478,0,0,0-.806-.552,2.744,2.744,0,0,0-1.209-.236,3.841,3.841,0,0,0-1.37.236,2.523,2.523,0,0,0-.887.63,3.246,3.246,0,0,0-.564.867,4.035,4.035,0,0,0-.322,1.655,4.4,4.4,0,0,0,.4,1.891,2.519,2.519,0,0,0,1.128,1.1,3.736,3.736,0,0,0,1.612.394A3.221,3.221,0,0,0,5.8,74.029a2.6,2.6,0,0,0,1.048-.63V71.822h-2.5Z" transform="translate(0 -14.137)"/>
    <path id="path-34" data-name="path" class="cls-1" d="M13.2,75.332V66.9h6.206v1.024H14.328v2.522h4.755v1.024H14.328v2.837h5.319v1.024Z" transform="translate(-2.561 -14.179)"/>
    <path id="path-35" data-name="path" class="cls-1" d="M24.3,75.332V66.9h1.209l4.513,6.62V66.9H31.07v8.432H29.942l-4.513-6.62v6.62Z" transform="translate(-4.715 -14.179)"/>
    <path id="path-36" data-name="path" class="cls-1" d="M36.4,75.332V66.9h6.206v1.024H37.528v2.522h4.755v1.024H37.528v2.837h5.239v1.024Z" transform="translate(-7.063 -14.179)"/>
    <path id="path-37" data-name="path" class="cls-1" d="M48.628,70.6h2.418a4.981,4.981,0,0,0,1.209-.158,1,1,0,0,0,.645-.473,1.31,1.31,0,0,0,.242-.788,1.291,1.291,0,0,0-.4-.946,2.168,2.168,0,0,0-1.37-.394h-2.74V70.6ZM47.5,75.332V66.9h3.788a5.318,5.318,0,0,1,1.773.236,1.873,1.873,0,0,1,.967.788,2.272,2.272,0,0,1,.322,1.261,1.937,1.937,0,0,1-.564,1.5,3.346,3.346,0,0,1-1.854.788c.322.158.564.315.725.394a13.807,13.807,0,0,1,.967,1.1l1.531,2.285H53.706L52.577,73.52c-.322-.473-.645-.867-.806-1.182a3.6,3.6,0,0,0-.564-.552l-.484-.236c-.161,0-.322-.079-.645-.079h-1.29v3.7H47.5Z" transform="translate(-9.217 -14.179)"/>
    <path id="path-38" data-name="path" class="cls-1" d="M60.8,71.865h2.9L62.813,69.5c-.242-.709-.484-1.261-.645-1.734a5.145,5.145,0,0,1-.484,1.576Zm-2.5,3.467L61.6,66.9h1.209l3.546,8.432H65.07L64.1,72.81H60.476l-.967,2.522Z" transform="translate(-11.312 -14.179)"/>
    <path id="path-39" data-name="path" class="cls-1" d="M70.6,75.332V66.9h1.128v7.408H76v1.024Z" transform="translate(-13.699 -14.179)"/>
    <rect id="rectangle-3" data-name="rectangle" class="cls-1" width="1.128" height="8.432" transform="translate(64.799 52.72)"/>
    <path id="path-40" data-name="path" class="cls-1" d="M85.1,72.51l1.048-.079a3.1,3.1,0,0,0,.322,1.024,1.948,1.948,0,0,0,.887.63,3.408,3.408,0,0,0,1.29.236,4.857,4.857,0,0,0,1.128-.158,1.75,1.75,0,0,0,.725-.552,1.161,1.161,0,0,0,0-1.419,1.538,1.538,0,0,0-.806-.473,12.046,12.046,0,0,0-1.531-.394,6.816,6.816,0,0,1-1.693-.552,2.164,2.164,0,0,1-.887-.788,2.2,2.2,0,0,1-.322-1.024,2.31,2.31,0,0,1,.4-1.182,2.79,2.79,0,0,1,1.048-.867,4.863,4.863,0,0,1,1.612-.315,3.811,3.811,0,0,1,1.693.315,2.523,2.523,0,0,1,1.128.867,2.614,2.614,0,0,1,.4,1.34l-.967.158a1.666,1.666,0,0,0-.564-1.182,3.173,3.173,0,0,0-3.063,0,1.082,1.082,0,0,0-.484.867.762.762,0,0,0,.322.709,6.729,6.729,0,0,0,1.693.63c.887.236,1.531.394,1.934.552a2.524,2.524,0,0,1,1.128.867A1.868,1.868,0,0,1,91.87,72.9a2.345,2.345,0,0,1-.4,1.261,2.664,2.664,0,0,1-1.128.946,3.812,3.812,0,0,1-1.693.315,4.492,4.492,0,0,1-1.934-.315A2.222,2.222,0,0,1,85.5,74.086a3.274,3.274,0,0,1-.4-1.576" transform="translate(-16.513 -14.116)"/>
    <path id="path-41" data-name="path" class="cls-1" d="M98.721,75.332V67.924H95.9V66.9h6.851v1.024h-2.9v7.408Z" transform="translate(-18.608 -14.179)"/>
    <path id="path-42" data-name="path" class="cls-1" d="M0,88.331V82.5H1.209l1.37,4.1c.161.394.242.709.322.867.081-.236.161-.552.322-.946L4.675,82.5h.967v5.832H4.916V83.446L3.224,88.331H2.5L.806,83.367v4.965Z" transform="translate(0 -17.486)"/>
    <path id="path-43" data-name="path" class="cls-1" d="M9.2,88.331V82.5h4.272v.63H10.006v1.813h3.3v.709h-3.3v1.97h3.627v.709Z" transform="translate(-1.785 -17.486)"/>
    <path id="path-44" data-name="path" class="cls-1" d="M17.406,87.622H18.7a2.561,2.561,0,0,0,.887-.079,1.307,1.307,0,0,0,.564-.315,1.516,1.516,0,0,0,.4-.709,4.555,4.555,0,0,0,.161-1.1A2.328,2.328,0,0,0,20.388,84a1.735,1.735,0,0,0-.725-.63,3.223,3.223,0,0,0-1.048-.158h-1.29v4.413Zm-.806.709V82.5h2.015a3.717,3.717,0,0,1,1.048.079,3.012,3.012,0,0,1,.887.394A2,2,0,0,1,21.275,84a3.741,3.741,0,0,1,.242,1.418,4.67,4.67,0,0,1-.161,1.182,2.882,2.882,0,0,1-.4.867,1.863,1.863,0,0,1-.564.552,1.535,1.535,0,0,1-.725.315,3.394,3.394,0,0,1-.967.079H16.6Z" transform="translate(-3.221 -17.486)"/>
    <rect id="rectangle-4" data-name="rectangle" class="cls-1" width="0.806" height="5.832" transform="translate(19.988 65.014)"/>
    <path id="path-45" data-name="path" class="cls-1" d="M32.233,86.24l.806.158a2.567,2.567,0,0,1-.887,1.419,2.6,2.6,0,0,1-1.612.473,2.917,2.917,0,0,1-1.531-.394,2.047,2.047,0,0,1-.887-1.1,3.461,3.461,0,0,1-.322-1.576,3.256,3.256,0,0,1,.322-1.576,2.181,2.181,0,0,1,1.048-1.024,2.812,2.812,0,0,1,1.451-.315,2.519,2.519,0,0,1,1.531.473,2.434,2.434,0,0,1,.887,1.261l-.806.158a2.713,2.713,0,0,0-.564-.946,1.754,1.754,0,0,0-.967-.315,1.733,1.733,0,0,0-1.128.315,1.783,1.783,0,0,0-.645.867,2.628,2.628,0,0,0-.161,1.1,2.943,2.943,0,0,0,.242,1.261,1.422,1.422,0,0,0,.725.788,2.272,2.272,0,0,0,1.048.236,1.953,1.953,0,0,0,1.128-.394c.081,0,.242-.394.322-.867" transform="translate(-5.394 -17.444)"/>
    <path id="path-46" data-name="path" class="cls-1" d="M36.992,85.888h2.015l-.645-1.576c-.161-.473-.322-.867-.4-1.182a5.706,5.706,0,0,1-.322,1.1ZM35.3,88.331,37.557,82.5h.887l2.418,5.832h-.887L39.249,86.6h-2.5l-.645,1.734Z" transform="translate(-6.85 -17.486)"/>
    <path id="path-47" data-name="path" class="cls-1" d="M43.5,88.331V82.5h.806v5.122h2.9v.709Z" transform="translate(-8.441 -17.486)"/>
    <path id="path-48" data-name="path" class="cls-1" d="M54.134,88.331v-5.2H52.2V82.5h4.675v.63H54.94v5.2Z" transform="translate(-10.129 -17.486)"/>
    <path id="path-49" data-name="path" class="cls-1" d="M60.406,85.022H62.1a2.3,2.3,0,0,0,.806-.079,1.029,1.029,0,0,0,.484-.315,1.12,1.12,0,0,0,.161-.552.953.953,0,0,0-.322-.709,1.749,1.749,0,0,0-.967-.236H60.406v1.891Zm-.806,3.31V82.5h2.66a4.009,4.009,0,0,1,1.209.158,1.425,1.425,0,0,1,.645.552,1.562,1.562,0,0,1,.242.867,1.48,1.48,0,0,1-.4,1.024,1.949,1.949,0,0,1-1.29.552.74.74,0,0,1,.484.315,3.1,3.1,0,0,1,.645.788l1.048,1.576h-.967l-.806-1.182c-.242-.315-.4-.63-.564-.788s-.242-.315-.4-.394a.617.617,0,0,0-.322-.158h-1.29v2.6H59.6Z" transform="translate(-11.565 -17.486)"/>
    <path id="path-50" data-name="path" class="cls-1" d="M68.492,85.888h2.015l-.645-1.576c-.161-.473-.322-.867-.4-1.182a5.708,5.708,0,0,1-.322,1.1ZM66.8,88.331,69.057,82.5h.887l2.418,5.832h-.887L70.749,86.6h-2.5l-.645,1.734Z" transform="translate(-12.962 -17.486)"/>
    <rect id="rectangle-5" data-name="rectangle" class="cls-1" width="0.806" height="5.832" transform="translate(60.608 65.014)"/>
    <path id="path-51" data-name="path" class="cls-1" d="M78.5,88.331V82.5h.806l3.063,4.571V82.5h.806v5.832h-.806l-3.143-4.571v4.571Z" transform="translate(-15.232 -17.486)"/>
    <rect id="rectangle-6" data-name="rectangle" class="cls-1" width="0.806" height="5.832" transform="translate(69.796 65.014)"/>
    <path id="path-52" data-name="path" class="cls-1" d="M89.9,88.331V82.5h.806l3.143,4.571V82.5h.725v5.832h-.806l-3.143-4.571v4.571Z" transform="translate(-17.444 -17.486)"/>
    <path id="path-53" data-name="path" class="cls-1" d="M100.663,86v-.709h2.5v2.128a4.834,4.834,0,0,1-1.209.709,3.408,3.408,0,0,1-1.29.236,3.736,3.736,0,0,1-1.612-.394A2.591,2.591,0,0,1,98,86.949a3.273,3.273,0,0,1-.4-1.576A2.72,2.72,0,0,1,98,83.8a2.346,2.346,0,0,1,1.048-1.1,3.393,3.393,0,0,1,1.531-.394,2.623,2.623,0,0,1,1.128.236,2.057,2.057,0,0,1,.806.552,5.2,5.2,0,0,1,.484.946l-.725.158a1.47,1.47,0,0,0-.322-.709,1.446,1.446,0,0,0-.564-.394,2.432,2.432,0,0,0-.806-.158,4.13,4.13,0,0,0-.967.158,1.762,1.762,0,0,0-.645.394,2.4,2.4,0,0,0-.4.552,3.1,3.1,0,0,0-.242,1.182,3.329,3.329,0,0,0,.242,1.34,1.921,1.921,0,0,0,.806.788,2.624,2.624,0,0,0,1.128.236,4.128,4.128,0,0,0,.967-.158,2.918,2.918,0,0,0,.725-.394V86Z" transform="translate(-18.938 -17.443)"/>
    <path id="path-54" data-name="path" class="cls-1" d="M43.937,54.037H41.6V27.795h3.466c.242,0,.484.473.564.709,1.531,4.1,3.063,8.275,4.594,12.372,1.128,3.073,2.257,6.147,3.546,9.535.322-.788.645-1.34.806-1.891,2.5-6.7,5.078-13.4,7.576-20.174a.689.689,0,0,1,.887-.552h2.337c.645,0,.806.158.806.788V54.116H64.248c-.161,0-.322-.236-.4-.473a2.1,2.1,0,0,1,0-.709V31.5a1.3,1.3,0,0,0-.242-.867c-.645,1.813-1.37,3.625-2.015,5.438-2.1,5.753-4.272,11.506-6.367,17.258a1.027,1.027,0,0,1-1.29.788c-.645-.079-1.128.079-1.451-.788-2.579-7.25-5.239-14.5-7.9-21.75a1.5,1.5,0,0,0-.564-.867V54.037Z" transform="translate(-8.072 -5.887)"/>
    <path id="path-55" data-name="path" class="cls-1" d="M22.379,43.066H14.8c-.322,0-.887-.158-.887-.236a12.447,12.447,0,0,1,0-1.734c0-.079.4-.158.645-.158h9.591c.645,0,.806.236.806.788v8.353a1.438,1.438,0,0,1-.4.946c-5.158,3.625-10.8,4.649-16.764,2.364a11.154,11.154,0,0,1-7.173-8.9,16.285,16.285,0,0,1,.967-9.772,11.578,11.578,0,0,1,9.349-7.092,13.36,13.36,0,0,1,9.672,1.5,9.068,9.068,0,0,1,4.03,5.753,18.426,18.426,0,0,1-1.934.63c-.242.079-.645-.236-.725-.394-1.854-4.965-6.528-6.3-11.122-5.28-4.675.788-6.931,4.019-7.737,8.275a13.7,13.7,0,0,0,1.048,8.747,10.307,10.307,0,0,0,10.478,5.438,14.812,14.812,0,0,0,7.173-2.522c.242-.158.484-.394.484-.63.081-1.97.081-3.94.081-6.068" transform="translate(-0.054 -5.791)"/>
    <path id="path-56" data-name="path" class="cls-1" d="M91.8,29.98V54.016H89.221V30.059H81.806c-.564,0-.806-.158-.806-.788.081-1.891-.161-1.576,1.531-1.576H99.94V29.98Z" transform="translate(-15.717 -5.866)"/>
  </g>
</svg>
