<svg xmlns="http://www.w3.org/2000/svg" xmlns:xlink="http://www.w3.org/1999/xlink" viewBox="-617.26 2748 186.26 181.65">
  <defs>
    <style>
      .cls-1 {
        clip-path: url(#clip-path);
      }

      .cls-2 {
        fill: #231f20;
      }

      .cls-3 {
        fill: #0072bc;
      }

      .cls-4 {
        fill: #ebb71f;
      }

      .cls-5 {
        clip-path: url(#clip-path-35);
      }
    </style>
    <clipPath id="clip-path">
      <rect id="rectangle" width="186.26" height="79.607"/>
    </clipPath>
    <clipPath id="clip-path-35">
      <rect id="rectangle-35" data-name="rectangle" width="47.654" height="56.247"/>
    </clipPath>
  </defs>
  <g id="group-86" transform="translate(-617.26 2748)">
    <g id="group-84" transform="translate(0)">
      <g id="group" class="cls-1">
        <path id="path" class="cls-2" d="M31.814,19.967c0-2.445,0-2.9-3.056-3.362V16.3h7.793v.306c-2.75.306-2.75,1.07-2.75,3.362v8.1c0,4.431-.458,5.348-5.348,7.487l-.153-.458c3.362-1.528,3.667-3.973,3.667-8.1V19.967Z" transform="translate(14.942 8.606)"/>
      </g>
      <g id="group-2" data-name="group" class="cls-1">
        <path id="path-2" data-name="path" class="cls-2" d="M40.487,18.6l-2.139,5.806h4.431Zm-2.6,6.876a17.463,17.463,0,0,0-1.375,4.584c0,1.375,1.528,1.375,2.6,1.528V31.9H33v-.306c1.986-.611,2.139-1.07,2.9-2.75l2.6-6.723,1.375-3.667c.153-.611.458-1.07.306-1.528A4.333,4.333,0,0,0,41.862,15.7l4.89,13.293c.611,1.681,1.07,2.292,2.75,2.6V31.9h-6.57v-.306c.764-.153,1.681-.458,1.681-1.375s-.917-3.056-1.375-4.584H37.89Z" transform="translate(17.423 8.289)"/>
      </g>
      <g id="group-3" data-name="group" class="cls-1">
        <path id="path-3" data-name="path" class="cls-2" d="M54.649,28.477l4.126-9.015c.611-1.222.917-2.445.458-2.75v-.306h4.89v.306c-1.375.306-2.292.764-2.292,2.445l.458,8.251c.306,3.209.306,3.667,2.6,3.973v.306H57.4V31.38c1.681-.306,2.9-.458,2.75-2.445L59.538,19h0L53.732,31.685h-.306L48.078,19.462h0c-.306,3.514-.611,5.959-.764,9.473,0,.917,0,1.834,2.75,2.292v.306H43.8v-.306c1.986-.306,2.139-1.375,2.6-3.209l.764-6.417.306-3.056c.153-1.528-1.222-1.986-2.445-2.139V16.1h4.89v.306c-.458.458.153,1.834.306,2.292Z" transform="translate(23.125 8.5)"/>
      </g>
      <g id="group-4" data-name="group" class="cls-1">
        <path id="path-4" data-name="path" class="cls-2" d="M58.3,31.274c2.75-.306,2.75-1.07,2.75-3.362V19.967c0-2.292-.153-3.056-2.75-3.362V16.3H70.371l-.306,3.514H69.76c-.153-2.9-2.292-2.9-4.584-2.9H63.037v6.417h2.445c1.681,0,3.056-.153,3.209-2.139H69v5.042H68.69c-.306-1.986-1.528-1.986-3.209-1.986H63.19v3.667c0,1.375-.306,3.209,3.362,3.209,2.9,0,4.278-1.07,4.737-3.973h.306a13.456,13.456,0,0,1-.764,4.431H58.3Z" transform="translate(30.781 8.606)"/>
      </g>
      <g id="group-5" data-name="group" class="cls-1">
        <path id="path-5" data-name="path" class="cls-2" d="M76.915,20.326h-.306c-.306-1.834-.917-3.514-3.209-3.514a2.546,2.546,0,0,0-2.6,2.445c0,3.973,7.182,3.82,7.182,8.4,0,2.9-2.9,4.431-5.5,4.431a7.574,7.574,0,0,1-3.973-1.222l-.611-3.82h.458c.611,2.139,2.139,4.278,4.584,4.278A2.818,2.818,0,0,0,76,28.577c0-3.973-6.876-3.667-6.876-8.1,0-2.6,2.6-4.278,5.042-4.278a6.543,6.543,0,0,1,3.362.917Z" transform="translate(35.85 8.553)"/>
      </g>
      <g id="group-6" data-name="group" class="cls-1">
        <path id="path-6" data-name="path" class="cls-2" d="M91.652,21.142h-.306c-.458-2.6-1.986-4.431-4.584-4.431-4.126,0-6.417,3.362-6.417,7.334,0,4.431,3.362,7.487,6.723,7.487,2.9,0,4.126-2.139,5.2-4.584l.306.153a30.182,30.182,0,0,1-1.222,3.973,9.5,9.5,0,0,1-4.584.917c-4.737,0-8.862-2.75-8.862-7.793,0-3.973,3.209-8.1,9.168-8.1a8.967,8.967,0,0,1,4.889,1.222v3.82Z" transform="translate(41.129 8.5)"/>
      </g>
      <g id="group-7" data-name="group" class="cls-1">
        <path id="path-7" data-name="path" class="cls-2" d="M90.8,23.587c0,3.514,1.834,7.945,5.959,7.945,3.667,0,5.348-3.82,5.348-7.029,0-3.973-2.445-7.793-5.806-7.793-3.973,0-5.5,3.82-5.5,6.876m13.9.458c0,4.89-3.514,7.945-8.251,7.945S88.2,28.935,88.2,24.045c0-4.737,3.514-7.945,8.251-7.945,5.654,0,8.251,3.973,8.251,7.945" transform="translate(46.567 8.5)"/>
      </g>
      <g id="group-8" data-name="group" class="cls-1">
        <path id="path-8" data-name="path" class="cls-2" d="M102.6,23.587c0,3.514,1.834,7.945,5.959,7.945,3.667,0,5.348-3.82,5.348-7.029,0-3.973-2.445-7.793-5.806-7.793-3.973,0-5.5,3.82-5.5,6.876m13.9.458c0,4.89-3.514,7.945-8.251,7.945S100,28.935,100,24.045c0-4.737,3.514-7.945,8.251-7.945,5.806,0,8.251,3.973,8.251,7.945" transform="translate(52.798 8.5)"/>
      </g>
      <g id="group-9" data-name="group" class="cls-1">
        <path id="path-9" data-name="path" class="cls-2" d="M126.074,16.353v.306c-2.6.306-4.278,2.445-5.959,4.126l-2.139,2.292,4.584,5.042A10.19,10.19,0,0,0,127.6,31.48l-.153.306c-3.973-.306-4.584-.458-6.723-2.75l-4.584-5.042,3.667-3.973c2.445-2.6,1.986-3.362.458-3.514V16.2h5.806ZM115.837,27.965c0,2.292.153,3.056,3.056,3.362v.306H111.1v-.306c2.75-.306,2.75-1.07,2.75-3.362V20.02c0-2.292-.153-3.056-2.75-3.362v-.306h7.182v.306c-2.292.306-2.292,1.07-2.445,3.362Z" transform="translate(58.658 8.553)"/>
      </g>
      <g id="group-10" data-name="group" class="cls-1">
        <path id="path-10" data-name="path" class="cls-2" d="M46.325,30.253v.306c-1.986.153-2.139,1.528-2.292,4.431l-.153,4.89c0,2.9-1.375,5.806-6.265,5.806-7.029,0-6.265-5.042-6.265-6.876V33.767c0-2.292-.153-3.056-2.75-3.362V30.1h7.793v.306c-2.9.458-3.056.917-3.056,3.362v4.584c0,.458-.764,6.265,5.5,6.265,4.89,0,4.431-4.584,4.431-7.334V34.837c0-2.9-.153-4.126-3.362-4.431V30.1h6.418Z" transform="translate(15.1 15.892)"/>
      </g>
      <g id="group-11" data-name="group" class="cls-1">
        <path id="path-11" data-name="path" class="cls-2" d="M55.621,41.965l-.153-8.251c0-2.139-.611-2.75-3.209-3.209V30.2h6.112v.306c-1.528.153-1.834,1.07-1.986,2.6-.306,2.445-.153,7.946-.153,12.835h-.306c-3.667-4.278-7.64-8.251-11.46-12.377v4.126c0,5.654-.153,6.723,3.209,7.334v.306h-6.57v-.153c3.056-.306,2.9-2.445,2.9-7.487V34.326c0-2.292-.306-3.209-3.209-3.82V30.2h3.667Z" transform="translate(21.541 15.945)"/>
      </g>
      <g id="group-12" data-name="group" class="cls-1">
        <path id="path-12" data-name="path" class="cls-2" d="M57.89,41.813c0,2.292.153,3.056,2.75,3.362v.306H53v-.306c2.75-.306,2.75-1.07,2.75-3.362V33.867c0-2.292-.153-3.056-2.75-3.362V30.2h7.64v.306c-2.75.306-2.75,1.07-2.75,3.362Z" transform="translate(27.983 15.945)"/>
      </g>
      <g id="group-13" data-name="group" class="cls-1">
        <path id="path-13" data-name="path" class="cls-2" d="M75.26,30.253v.306c-2.139.153-2.75,1.986-4.125,5.2L66.857,45.991h-.306L61.509,33.767c-.611-1.681-1.222-3.056-3.209-3.362V30.1h7.182v.306c-3.209.306-2.139,2.139-1.528,3.514l3.667,8.709,2.6-6.418c1.986-4.584,2.292-5.348-1.07-5.806V30.1H75.26Z" transform="translate(30.781 15.892)"/>
      </g>
      <g id="group-14" data-name="group" class="cls-1">
        <path id="path-14" data-name="path" class="cls-2" d="M69.553,45.174c2.75-.306,2.75-1.07,2.75-3.362V33.867c0-2.292-.153-3.056-2.75-3.361V30.2H81.624l-.306,3.514h-.306c-.153-2.9-2.292-2.9-4.584-2.9H74.289v6.417h2.292c1.681,0,3.056-.153,3.209-2.139H80.1v5.042H79.79c-.306-1.986-1.528-1.986-3.209-1.986H74.289v3.667c0,1.375-.306,3.209,3.362,3.209,2.9,0,4.278-1.07,4.737-3.973h.306a13.457,13.457,0,0,1-.764,4.431H69.4v-.306Z" transform="translate(36.642 15.945)"/>
      </g>
      <g id="group-15" data-name="group" class="cls-1">
        <path id="path-15" data-name="path" class="cls-2" d="M83.637,37.842c2.139,0,4.737-1.07,4.737-3.514,0-2.6-2.292-3.667-4.737-3.667ZM81.65,34.786c0-3.514-.153-3.973-2.6-4.126v-.306l5.5-.153c5.653-.153,6.112,2.6,6.112,3.667a3.948,3.948,0,0,1-2.75,3.667l.153.153c1.681,3.056,3.973,6.876,7.64,7.64v.306c-2.445-.153-4.126,0-5.5-1.375A21.161,21.161,0,0,1,87,39.676c-.917-1.834-1.681-1.375-3.362-1.528v3.667c0,2.445,0,2.9,3.209,3.362v.306H78.9v-.306c2.75-.306,2.75-1.07,2.75-3.362Z" transform="translate(41.657 15.943)"/>
      </g>
      <g id="group-16" data-name="group" class="cls-1">
        <path id="path-16" data-name="path" class="cls-2" d="M98.515,34.331h-.306C97.9,32.5,97.293,30.664,95,30.664a2.546,2.546,0,0,0-2.6,2.445c0,3.973,7.181,3.82,7.181,8.4,0,2.9-2.9,4.431-5.5,4.431a7.573,7.573,0,0,1-3.973-1.222L89.5,40.9h.458c.611,2.139,2.139,4.278,4.584,4.278a2.61,2.61,0,0,0,2.9-2.75c0-3.973-6.876-3.667-6.876-8.251,0-2.6,2.6-4.278,5.042-4.278a6.543,6.543,0,0,1,3.362.917Z" transform="translate(47.254 15.786)"/>
      </g>
      <g id="group-17" data-name="group" class="cls-1">
        <path id="path-17" data-name="path" class="cls-2" d="M101.39,41.813c0,2.292.153,3.056,2.75,3.362v.306H96.5v-.306c2.75-.306,2.75-1.07,2.75-3.362V33.867c0-2.292-.153-3.056-2.75-3.362V30.2h7.64v.306c-2.75.306-2.75,1.07-2.75,3.362Z" transform="translate(50.95 15.945)"/>
      </g>
      <g id="group-18" data-name="group" class="cls-1">
        <path id="path-18" data-name="path" class="cls-2" d="M116.1,29.7h.153l.306,4.278h-.306c-.764-2.75-1.986-2.9-4.584-2.9H110.3v10.39c0,2.75.153,3.514,3.209,3.973v.306h-8.251v-.306c3.056-.306,3.209-1.07,3.209-3.973V31.075h-1.375c-2.6,0-3.82.153-4.584,2.9H102.2l.306-4.278h.153l.153.153a1.54,1.54,0,0,0,1.375.458h10.39a1.54,1.54,0,0,0,1.375-.458Z" transform="translate(53.959 15.681)"/>
      </g>
      <g id="group-19" data-name="group" class="cls-1">
        <path id="path-19" data-name="path" class="cls-2" d="M126.363,30.253v.306c-1.986.153-2.9,1.222-3.82,2.9l-2.6,5.348v2.6c0,2.6.153,3.514,3.056,3.973v.306h-7.946v-.458c2.9-.458,2.9-1.375,3.056-3.973V39.421l-2.292-5.2c-.917-1.834-1.528-3.514-3.82-3.82V30.1h6.265v.306c-1.834.306-1.528,1.07-.917,2.6l2.292,4.89,1.986-3.667c1.375-2.6,1.222-3.514-.764-3.667v-.306Z" transform="translate(59.133 15.892)"/>
      </g>
      <g id="group-20" data-name="group" class="cls-1">
        <rect id="rectangle-42" data-name="rectangle" class="cls-2" width="137.671" height="0.458" transform="translate(46.298 65.856)"/>
      </g>
      <g id="group-21" data-name="group" class="cls-1">
        <path id="path-20" data-name="path" class="cls-2" d="M35.206,51.7l-1.375-3.362L32.456,51.7ZM33.22,46.5H34.6l3.667,8.4H36.734l-.917-1.986H31.845L30.928,54.9H29.4Z" transform="translate(15.522 24.551)"/>
      </g>
      <g id="group-22" data-name="group" class="cls-1">
        <path id="path-21" data-name="path" class="cls-2" d="M36,51.39V46.5h1.528v4.737c0,1.528.764,2.445,2.139,2.445s2.139-.764,2.139-2.292V46.5h1.528v4.737c0,2.445-1.375,3.82-3.667,3.82A3.3,3.3,0,0,1,36,51.39" transform="translate(19.007 24.551)"/>
      </g>
      <g id="group-23" data-name="group" class="cls-1">
        <path id="path-22" data-name="path" class="cls-2" d="M41.8,53.681l.917-1.07a3.578,3.578,0,0,0,2.6,1.07c.917,0,1.528-.458,1.528-1.07h0c0-.611-.306-.917-1.834-1.222-1.834-.458-2.75-.917-2.75-2.445h0a2.64,2.64,0,0,1,2.9-2.445,4.4,4.4,0,0,1,3.056,1.07l-.764,1.07a3.67,3.67,0,0,0-2.292-.917c-.917,0-1.375.458-1.375,1.07h0c0,.611.458.917,1.986,1.375,1.834.458,2.75,1.07,2.75,2.445h0c0,1.528-1.222,2.445-3.056,2.445A5.205,5.205,0,0,1,41.8,53.681" transform="translate(22.069 24.551)"/>
      </g>
      <g id="group-24" data-name="group" class="cls-1">
        <path id="path-23" data-name="path" class="cls-2" d="M49.55,47.875H46.8V46.5h6.876v1.375h-2.75V54.9H49.55Z" transform="translate(24.709 24.551)"/>
      </g>
      <g id="group-25" data-name="group" class="cls-1">
        <path id="path-24" data-name="path" class="cls-2" d="M56.014,50.778c1.07,0,1.681-.611,1.681-1.375h0c0-.917-.611-1.375-1.681-1.375H53.875v2.75h2.139ZM52.5,46.5h3.667a3.888,3.888,0,0,1,2.445.764,2.53,2.53,0,0,1,.764,1.834h0a2.619,2.619,0,0,1-1.986,2.6L59.681,54.9H57.848L55.862,52H54.028v2.9H52.5Z" transform="translate(27.719 24.551)"/>
      </g>
      <g id="group-26" data-name="group" class="cls-1">
        <path id="path-25" data-name="path" class="cls-2" d="M63.606,51.7l-1.375-3.362L60.856,51.7Zm-2.139-5.2h1.375l3.667,8.4H64.981l-.764-1.986H60.245L59.328,54.9H57.8Z" transform="translate(30.517 24.551)"/>
      </g>
      <g id="group-27" data-name="group" class="cls-1">
        <path id="path-26" data-name="path" class="cls-2" d="M64.7,46.5h1.375v7.181h4.431V54.9H64.7Z" transform="translate(34.16 24.551)"/>
      </g>
      <g id="group-28" data-name="group" class="cls-1">
        <rect id="rectangle-43" data-name="rectangle" class="cls-2" width="1.528" height="8.404" transform="translate(106.5 71.051)"/>
      </g>
      <g id="group-29" data-name="group" class="cls-1">
        <path id="path-27" data-name="path" class="cls-2" d="M77.606,51.7l-1.375-3.362L74.856,51.7ZM75.62,46.5H77l3.667,8.4H79.134l-.917-1.986H74.245L73.328,54.9H71.8Z" transform="translate(37.909 24.551)"/>
      </g>
      <g id="group-30" data-name="group" class="cls-1">
        <path id="path-28" data-name="path" class="cls-3" d="M32.246,25.07a9.664,9.664,0,0,1-4.584,1.07,10.147,10.147,0,0,1-4.584-1.07A9.664,9.664,0,0,0,18.494,24a10.147,10.147,0,0,0-4.584,1.07,9.664,9.664,0,0,1-4.584,1.07,10.147,10.147,0,0,1-4.584-1.07A9.664,9.664,0,0,0,.158,24H-.3v5.959H.158a10.147,10.147,0,0,1,4.584,1.07A9.664,9.664,0,0,0,9.326,32.1a10.147,10.147,0,0,0,4.584-1.07,9.664,9.664,0,0,1,4.584-1.07,10.147,10.147,0,0,1,4.584,1.07,9.664,9.664,0,0,0,4.584,1.07,10.147,10.147,0,0,0,4.584-1.07,9.664,9.664,0,0,1,4.584-1.07h.458V24H36.83a9.664,9.664,0,0,0-4.584,1.07" transform="translate(-0.158 12.671)"/>
      </g>
      <g id="group-31" data-name="group" class="cls-1">
        <path id="path-29" data-name="path" class="cls-3" d="M27.392,34.039a10.147,10.147,0,0,1-4.584-1.07,9.664,9.664,0,0,0-4.584-1.07,10.147,10.147,0,0,0-4.584,1.07,9.664,9.664,0,0,1-4.584,1.07,10.146,10.146,0,0,1-4.584-1.07A10.114,10.114,0,0,0,.5,31.9a21.333,21.333,0,0,0,3.362,6.723c.153.153.458.153.611.306A9.664,9.664,0,0,0,9.057,40a10.147,10.147,0,0,0,4.584-1.07,9.664,9.664,0,0,1,4.584-1.07,10.147,10.147,0,0,1,4.584,1.07A9.664,9.664,0,0,0,27.392,40a10.147,10.147,0,0,0,4.584-1.07c.153-.153.306-.153.611-.306A21.333,21.333,0,0,0,35.949,31.9a10.114,10.114,0,0,0-3.973,1.07,10.666,10.666,0,0,1-4.584,1.07" transform="translate(0.264 16.842)"/>
      </g>
      <g id="group-32" data-name="group" class="cls-1">
        <path id="path-30" data-name="path" class="cls-3" d="M18.954,40.87A9.664,9.664,0,0,0,14.37,39.8a10.147,10.147,0,0,0-4.584,1.07,7.676,7.676,0,0,1-1.986.764,65.876,65.876,0,0,1,6.417,4.278c1.528-1.222,3.82-2.445,6.417-4.278a17.923,17.923,0,0,0-1.681-.764" transform="translate(4.118 21.013)"/>
      </g>
      <g id="group-33" data-name="group" class="cls-1">
        <path id="path-31" data-name="path" class="cls-3" d="M32.246,17.17a9.664,9.664,0,0,1-4.584,1.07,10.147,10.147,0,0,1-4.584-1.07,9.664,9.664,0,0,0-4.584-1.07,10.147,10.147,0,0,0-4.584,1.07,9.664,9.664,0,0,1-4.584,1.07,10.147,10.147,0,0,1-4.584-1.07A9.664,9.664,0,0,0,.158,16.1H-.3v5.959H.158a10.147,10.147,0,0,1,4.584,1.07A9.664,9.664,0,0,0,9.326,24.2a10.147,10.147,0,0,0,4.584-1.07,9.664,9.664,0,0,1,4.584-1.07,10.147,10.147,0,0,1,4.584,1.07,9.664,9.664,0,0,0,4.584,1.07,10.147,10.147,0,0,0,4.584-1.07,9.664,9.664,0,0,1,4.584-1.07h.458V16.1H36.83a11.907,11.907,0,0,0-4.584,1.07" transform="translate(-0.158 8.5)"/>
      </g>
      <g id="group-34" data-name="group" class="cls-1">
        <path id="path-32" data-name="path" class="cls-4" d="M21.336,12.224v-1.07c0-.153,0-.306-.153-.306V9.932c0-.306.153-.764.153-.917a1.256,1.256,0,0,0-.917.611c-.153.306-.306.458-.306.764,0,.153,0,.153-.153.306l-.458.917a4.051,4.051,0,0,1-.917.764h0a7.02,7.02,0,0,1,2.445,1.07,3.6,3.6,0,0,1,.306-1.222m-8.557-1.375c0,.153.153.153.153.306.153.306.153.611.306.917a3.364,3.364,0,0,1-.153,1.222h0a11.827,11.827,0,0,1,2.445-1.07l-.458-.917a1.841,1.841,0,0,0-.764-.764c-.153,0-.153-.153-.306-.153a9.36,9.36,0,0,0-.917-.611l-.458-.917a1.624,1.624,0,0,0-.153,1.222c0,.306.153.458.306.764m5.5,1.375L17.057,0,15.835,12.224c.458,0,.764-.153,1.222-.153.306,0,.764.153,1.222.153m4.737,3.056,2.292-4.126-4.126,2.292a6.969,6.969,0,0,1,1.834,1.834M12.779,13.446,8.654,11.154l2.292,4.126a5.267,5.267,0,0,1,1.834-1.834M25.92,16.655c0-.153.153-.153.153-.306.153-.306.458-.458.611-.764.306-.153.611-.458.764-.458-.153-.306-.764-.306-1.222-.153-.306,0-.458.153-.764.306-.153,0-.153.153-.306.153-.306.153-.611.153-.917.306a3.364,3.364,0,0,1-1.222-.153h0a11.828,11.828,0,0,1,1.07,2.445L25,17.572l.917-.917m-16.2,1.528L3,19.405l6.723,1.222c0-.458-.153-.764-.153-1.222,0-.306.153-.764.153-1.222m21.086,1.222-6.723-1.222c0,.458.153.764.153,1.222a3.364,3.364,0,0,1-.153,1.222ZM8.654,15.127H7.431c-.306,0-.764-.153-.917-.153a1.256,1.256,0,0,0,.611.917,1.167,1.167,0,0,0,.764.306c.153,0,.153,0,.306.153l.917.458a4.052,4.052,0,0,1,.764.917,7.02,7.02,0,0,1,1.07-2.445,3.364,3.364,0,0,1-1.222-.153H8.654M16.9,13.446a6.13,6.13,0,0,0-6.112,6.112v.917a4.576,4.576,0,0,0,1.528-.611,9.664,9.664,0,0,1,4.584-1.07,10.147,10.147,0,0,1,4.584,1.07,4.576,4.576,0,0,0,1.528.611v-.917A6.033,6.033,0,0,0,16.9,13.446" transform="translate(1.584)"/>
      </g>
    </g>
    <g id="group-85" transform="translate(138.312 125.403)">
      <g id="group-35" data-name="group" class="cls-5">
        <path id="path-33" data-name="path" class="cls-2" d="M2.544,35.05h.937V27.706H5.825l.312-.781H.2v.781H2.544Zm5.468,0c1.719,0,2.656-1.406,2.656-3.125A2.861,2.861,0,0,0,8.012,28.8c-1.719,0-2.656,1.406-2.656,3.125A2.615,2.615,0,0,0,8.012,35.05m0-.781a1.987,1.987,0,0,1-1.875-2.187c0-1.406.625-2.344,1.719-2.344s1.719.937,1.719,2.344c.156,1.25-.469,2.187-1.562,2.187m4.687.781h.781l1.406-4.687h0l1.406,4.687h.781l1.875-5.937h-.937L16.605,33.8h0L15.2,29.112h-.625L13.168,33.8h0l-1.406-4.687h-.937Zm7.031,0h.937V30.675a2.715,2.715,0,0,1,1.719-.937c.781,0,1.094.625,1.094,1.562v3.594h.937V30.987c0-1.406-.781-2.031-1.719-2.031a2.75,2.75,0,0,0-2.031.937l-.156-.781H19.73Zm5.312-.469a3.8,3.8,0,0,0,1.719.469c1.25,0,2.187-.625,2.187-1.719,0-2.031-2.812-1.562-2.812-2.812,0-.625.625-.781,1.094-.781a3.731,3.731,0,0,1,1.406.312v-.781a3.731,3.731,0,0,0-1.406-.312c-1.25,0-2.031.781-2.031,1.562,0,1.875,2.812,1.562,2.812,2.812,0,.625-.625.937-1.25.937a1.91,1.91,0,0,1-1.406-.469Zm6.562.469h.781l2.187-5.937h-.937L31.917,33.8h0L30.2,29.112h-.937Zm3.594,0h.937V29.269H35.2Zm.469-7.187a.625.625,0,1,0-.625-.625.672.672,0,0,0,.625.625m1.875,6.093c0,.781.312,1.094,1.094,1.094a1.171,1.171,0,0,0,.781-.156l-.156-.781a.546.546,0,0,0-.312.156c-.312,0-.469-.156-.469-.625V26.3h-.937Zm2.5,0c0,.781.312,1.094,1.094,1.094a1.171,1.171,0,0,0,.781-.156l-.156-.781a.545.545,0,0,0-.312.156c-.312,0-.469-.156-.469-.625V26.3h-.937Zm4.844,1.094a3.711,3.711,0,0,0,1.875-.469l-.312-.625a4.965,4.965,0,0,1-1.406.469c-1.25,0-1.875-.937-2.031-2.187h3.75v-.156c0-1.875-.781-2.969-2.344-2.969-1.406,0-2.344,1.25-2.344,2.969a2.744,2.744,0,0,0,2.812,2.969M43.01,31.456a1.435,1.435,0,1,1,2.812,0Z" transform="translate(0.112 14.791)"/>
      </g>
      <g id="group-36" data-name="group" class="cls-5">
        <path id="path-34" data-name="path" class="cls-2" d="M.4,22.468a4.044,4.044,0,0,0,2.187.625c1.562,0,2.656-.781,2.656-2.187,0-2.5-3.594-2.344-3.594-4.219a1.264,1.264,0,0,1,1.406-1.25,3.15,3.15,0,0,1,1.719.469v-.781a4.823,4.823,0,0,0-1.719-.312A2.066,2.066,0,0,0,.712,16.844c0,2.5,3.594,2.187,3.594,4.219,0,.937-.781,1.25-1.719,1.25a3.8,3.8,0,0,1-1.719-.469Zm5.937.469h.937V17.156H6.337ZM6.65,15.75a.625.625,0,1,0,0-1.25.672.672,0,0,0-.625.625c.156.312.312.625.625.625m1.875,7.187h.937V18.562a2.715,2.715,0,0,1,1.719-.937c.781,0,1.094.625,1.094,1.562v3.594h.937V18.875c0-1.406-.781-2.031-1.719-2.031a2.75,2.75,0,0,0-2.031.937L9.306,17H8.525Zm7.812,2.969c1.719,0,2.812-.781,2.812-1.875,0-2.187-3.906-1.094-3.906-2.344a1.185,1.185,0,0,1,.312-.625,6.767,6.767,0,0,0,.781.156,1.977,1.977,0,0,0,2.187-2.187,2.006,2.006,0,0,0-.625-1.562c.156-.156.312-.156.625-.156h.312l.156-.781H18.68A1.774,1.774,0,0,0,17.43,17h-.156a2.317,2.317,0,0,0-1.094-.156,2.105,2.105,0,0,0-2.187,2.031,1.8,1.8,0,0,0,.937,1.719,1.967,1.967,0,0,0-.625,1.094.859.859,0,0,0,.469.781,1.627,1.627,0,0,0-1.094,1.562c0,1.25,1.094,1.875,2.656,1.875m0-.781c-1.094,0-1.719-.469-1.719-1.094a1.23,1.23,0,0,1,.781-1.094c1.094.312,2.812.156,2.812,1.25,0,.469-.625.937-1.875.937m0-4.687a1.276,1.276,0,0,1-1.25-1.406,1.259,1.259,0,1,1,2.5,0,1.139,1.139,0,0,1-1.25,1.406m6.718,2.5h.781a16.979,16.979,0,0,1-.156-2.031V18.875a1.884,1.884,0,0,0-2.031-2.031,3.437,3.437,0,0,0-2.031.625l.312.625a2.64,2.64,0,0,1,1.562-.469,1.15,1.15,0,0,1,1.25,1.25v.312H21.649a3.12,3.12,0,0,0-1.406.312,1.569,1.569,0,0,0-.937,1.562,1.805,1.805,0,0,0,1.875,1.875,2.238,2.238,0,0,0,1.719-.781ZM22.9,19.968v1.562a2.144,2.144,0,0,1-1.562.781,1.068,1.068,0,0,1-1.094-1.094,1.114,1.114,0,0,1,.469-.937,2.317,2.317,0,0,1,1.094-.156Zm2.187,5.937h.937V22.937a2.317,2.317,0,0,0,1.094.156,2.915,2.915,0,0,0,2.969-3.125A2.713,2.713,0,0,0,27.117,17a7.842,7.842,0,0,0-1.875.312v8.593ZM25.867,22V17.781a1.982,1.982,0,0,1,.937-.156,1.932,1.932,0,0,1,2.031,2.187A2.064,2.064,0,0,1,26.8,22.156c-.312.156-.469,0-.937-.156m7.343,1.094c1.719,0,2.656-1.406,2.656-3.125a2.861,2.861,0,0,0-2.656-3.125c-1.719,0-2.656,1.406-2.656,3.125a2.861,2.861,0,0,0,2.656,3.125m0-.781c-1.094,0-1.719-.937-1.719-2.344s.625-2.344,1.719-2.344,1.719.937,1.719,2.344c.156,1.406-.625,2.344-1.719,2.344m3.75.625H37.9V18.562c.625-.625.937-.781,1.406-.781a.574.574,0,0,1,.469.156l.312-.781A.939.939,0,0,0,39.46,17c-.469,0-.937.156-1.719.937l-.156-.781H36.8v5.781Zm5.937.156a3.711,3.711,0,0,0,1.875-.469L44.46,22a4.966,4.966,0,0,1-1.406.469c-1.25,0-1.875-.937-2.031-2.187h3.75v-.312c0-1.875-.781-2.969-2.344-2.969-1.406,0-2.344,1.25-2.344,2.969s.937,3.125,2.812,3.125M41.023,19.5a1.435,1.435,0,1,1,2.812,0Z" transform="translate(0.225 8.155)"/>
      </g>
      <g id="group-37" data-name="group" class="cls-5">
        <path id="path-35" data-name="path" class="cls-2" d="M6.337,9.843a3.332,3.332,0,0,1-1.875.469A3.126,3.126,0,0,1,1.337,6.875,3.212,3.212,0,0,1,4.462,3.437a4.325,4.325,0,0,1,2.031.469V3.125a6.121,6.121,0,0,0-2.031-.312A4.071,4.071,0,0,0,.4,7.031a3.816,3.816,0,0,0,3.906,4.062,4.409,4.409,0,0,0,2.344-.625Zm4.687,1.094h.781a16.978,16.978,0,0,1-.156-2.031V7.031A1.884,1.884,0,0,0,9.618,5a3.437,3.437,0,0,0-2.031.625L7.9,6.25a2.64,2.64,0,0,1,1.562-.469c.781,0,1.25.312,1.25,1.25v.312H9.618a3.12,3.12,0,0,0-1.406.312,1.569,1.569,0,0,0-.937,1.562,1.685,1.685,0,0,0,1.719,1.875,2.238,2.238,0,0,0,1.719-.781Zm-.312-2.812V9.687a2.446,2.446,0,0,1-1.562.625A1.068,1.068,0,0,1,8.056,9.218a1.114,1.114,0,0,1,.469-.937c.312,0,.625-.156,1.25-.156ZM12.9,10.937h.937V5.156H12.9Zm.469-7.187a.672.672,0,0,0,.625-.625.625.625,0,1,0-1.25,0,.672.672,0,0,0,.625.625m1.719,7.187h.937V6.719c.625-.625.937-.781,1.406-.781a.574.574,0,0,1,.469.156l.312-.781a.939.939,0,0,0-.625-.156c-.469,0-.937.156-1.719.937l-.156-.781h-.625Zm3.75,0h.937V6.719a2.715,2.715,0,0,1,1.719-.937c.781,0,1.094.625,1.094,1.562v3.594h.937V7.031C23.524,5.625,22.743,5,21.805,5a2.75,2.75,0,0,0-2.031.937l-.156-.781h-.781Zm5.468-.312a3.8,3.8,0,0,0,1.719.469c1.25,0,2.187-.625,2.187-1.719,0-2.031-2.812-1.562-2.812-2.812,0-.625.625-.781,1.094-.781a3.12,3.12,0,0,1,1.406.312V5.312A3.731,3.731,0,0,0,26.492,5c-1.25,0-2.031.781-2.031,1.562,0,1.875,2.812,1.562,2.812,2.812,0,.625-.625.937-1.25.937a1.91,1.91,0,0,1-1.406-.469Z" transform="translate(0.225 1.406)"/>
      </g>
      <g id="group-38" data-name="group" class="cls-5">
        <rect id="rectangle-44" data-name="rectangle" class="cls-2" width="47.654" height="0.625"/>
      </g>
      <g id="group-39" data-name="group" class="cls-5">
        <rect id="rectangle-45" data-name="rectangle" class="cls-2" width="47.654" height="0.625" transform="translate(0 55.622)"/>
      </g>
      <g id="group-40" data-name="group" class="cls-5">
        <rect id="rectangle-46" data-name="rectangle" class="cls-2" width="47.654" height="0.625" transform="translate(0 18.593)"/>
      </g>
      <g id="group-41" data-name="group" class="cls-5">
        <rect id="rectangle-47" data-name="rectangle" class="cls-2" width="47.654" height="0.625" transform="translate(0 37.185)"/>
      </g>
    </g>
  </g>
</svg>
