<svg xmlns="http://www.w3.org/2000/svg" viewBox="-1284.143 395 31.714 30">
  <defs>
    <style>
      .cls-1 {
        fill: #fff;
      }
    </style>
  </defs>
  <path id="path-4" class="cls-1" d="M31.713,30H0V0H21.714a10.011,10.011,0,0,1,10,10V30ZM7.262,21.281a10.774,10.774,0,0,0,2.579,1.2,9.658,9.658,0,0,0,2.877.427,9.792,9.792,0,0,0,4.325-.914A10.02,10.02,0,0,0,20.2,19.614a10.324,10.324,0,0,0,1.948-3.277,10.428,10.428,0,0,0,.664-3.586v-.413a8.379,8.379,0,0,0,1.771-1.859,8.2,8.2,0,0,1-.974.354,6.056,6.056,0,0,1-1.063.207,3.947,3.947,0,0,0,1.564-1.948,11.242,11.242,0,0,1-1.092.5,5.272,5.272,0,0,1-1.181.324,4.153,4.153,0,0,0-1.151-.811A3.325,3.325,0,0,0,19.241,8.8a3.369,3.369,0,0,0-1.373.281,3.687,3.687,0,0,0-1.121.767A3.619,3.619,0,0,0,15.7,12.4a3.2,3.2,0,0,0,.088.768,9.607,9.607,0,0,1-4.1-1.077A10.132,10.132,0,0,1,8.468,9.446,3.689,3.689,0,0,0,8,11.246a3.567,3.567,0,0,0,.413,1.712A3.259,3.259,0,0,0,9.589,14.2a3.2,3.2,0,0,1-.9-.118,4.673,4.673,0,0,1-.752-.3,3.436,3.436,0,0,0,.812,2.287A3.619,3.619,0,0,0,10.8,17.3a4.139,4.139,0,0,1-.458.089,3.842,3.842,0,0,1-.487.029,2.68,2.68,0,0,1-.649-.088,3.521,3.521,0,0,0,3.306,2.479,6.808,6.808,0,0,1-4.4,1.5H7.672A2.9,2.9,0,0,1,7.262,21.281Z" transform="translate(-1284.143 395)"/>
</svg>
