<svg xmlns="http://www.w3.org/2000/svg" xmlns:xlink="http://www.w3.org/1999/xlink" viewBox="-1326.794 2869.787 112.419 58.871">
  <defs>
    <style>
      .cls-1 {
        clip-path: url(#clip-path);
      }

      .cls-2 {
        fill: #004a91;
      }

      .cls-10, .cls-11, .cls-12, .cls-2, .cls-3, .cls-4, .cls-5, .cls-6, .cls-7, .cls-8, .cls-9 {
        fill-rule: evenodd;
      }

      .cls-3 {
        fill: #007dc3;
      }

      .cls-4 {
        fill: #242227;
      }

      .cls-5 {
        fill: #2d2a2b;
      }

      .cls-6 {
        fill: #2c292a;
      }

      .cls-7 {
        fill: #2b2829;
      }

      .cls-8 {
        fill: #2a2829;
      }

      .cls-9 {
        fill: #2c292b;
      }

      .cls-10 {
        fill: #292728;
      }

      .cls-11, .cls-13 {
        fill: #2e2c2d;
      }

      .cls-12, .cls-14 {
        fill: #272425;
      }

      .cls-15 {
        fill: #007fc4;
      }
    </style>
    <clipPath id="clip-path">
      <rect id="rectangle" width="112.419" height="58.871"/>
    </clipPath>
  </defs>
  <g id="group-93" transform="translate(-1326.794 2869.787)">
    <g id="group" class="cls-1">
      <path id="path" class="cls-2" d="M22.212,48.448c-.161-1.774-.161-3.387-.323-5.161-.161-1.29-.161-2.419-.323-3.71s-.323-2.742-.484-4.032a37.666,37.666,0,0,0-.645-4.194c-.323-1.613-.484-3.226-.968-5-.645-2.581-1.129-5.161-1.774-7.9Q16,12.158,13.825,5.868c-.161-.323,0-.484.161-.645A65.014,65.014,0,0,1,18.18.061.158.158,0,0,1,18.341-.1h0c.968,3.226,1.935,6.29,2.742,9.516.484,2.258,1.129,4.677,1.452,6.935.323,1.935.645,3.871.968,5.645s.484,3.387.645,5.161.323,3.387.484,5.161a28.552,28.552,0,0,1,.161,3.71c0,2.258.161,4.516.161,6.774v5.161a2.046,2.046,0,0,0-.968.161c-.484.161-1.129.161-1.774.323" transform="translate(8.433 -0.061)"/>
    </g>
    <g id="group-2" data-name="group" class="cls-1">
      <path id="path-2" data-name="path" class="cls-3" d="M19.871,46.174c0-.484-.161-.968-.161-1.452l-.484-3.387c-.323-1.613-.484-3.226-.806-4.677-.484-3.065-1.29-5.968-1.935-8.871-.968-3.71-2.1-7.258-3.226-10.968-.806-2.1-1.613-4.194-2.258-6.29v-.323c1.29-1.935,2.419-3.71,3.71-5.645l.161-.161c.161.484.323.968.484,1.613a118.006,118.006,0,0,1,3.71,12.9c.645,2.9,1.29,5.968,1.774,8.871.323,1.774.645,3.71.806,5.484.161,1.29.323,2.742.484,4.194l.484,5.806c0,.968.161,1.774.161,2.742a8.811,8.811,0,0,0-2.9.161" transform="translate(6.742 2.697)"/>
    </g>
    <g id="group-3" data-name="group" class="cls-1">
      <path id="path-3" data-name="path" class="cls-2" d="M17.442,44.061c-.645-3.065-1.29-5.968-2.1-8.871A134.867,134.867,0,0,0,8.732,16c0-.161-.161-.161-.161-.323-.323-.484-.161-.806,0-1.29.968-1.774,1.935-3.548,2.742-5.323a.158.158,0,0,1,.161-.161c.323.968.806,1.935,1.129,2.9a120.866,120.866,0,0,1,4.516,14.839c.645,2.581,1.129,5.161,1.613,7.581.323,2.1.645,4.032.968,6.129a21.862,21.862,0,0,1,.323,3.226Z" transform="translate(5.139 5.455)"/>
    </g>
    <g id="group-4" data-name="group" class="cls-1">
      <path id="path-4" data-name="path" class="cls-3" d="M14.61,42.148a2.99,2.99,0,0,1-.323-1.129A150.8,150.8,0,0,0,6.546,20.374a1.028,1.028,0,0,1,0-.968C7.352,17.632,8,15.7,8.8,13.923c0-.161,0-.161.161-.323.645,1.452,1.129,2.9,1.774,4.355,1.613,4.194,3.065,8.548,4.355,12.9q1.452,5.081,2.419,10.161v.323c-1.129.323-2.1.484-2.9.806" transform="translate(3.938 8.335)"/>
    </g>
    <g id="group-5" data-name="group" class="cls-1">
      <path id="path-5" data-name="path" class="cls-2" d="M11.559,40.274c-.806-2.1-1.613-4.355-2.581-6.452-1.29-3.064-2.581-5.968-4.032-8.871-.161-.161-.161-.323,0-.645.645-1.936,1.129-3.871,1.774-5.806h0c0,.161.161.323.161.484a156.192,156.192,0,0,1,7.1,18.871l.484,1.452a30.446,30.446,0,0,0-2.9.968" transform="translate(2.957 11.339)"/>
    </g>
    <g id="group-6" data-name="group" class="cls-1">
      <path id="path-6" data-name="path" class="cls-3" d="M8.216,38.5c-.484-.968-.806-1.774-1.29-2.742-.968-2.1-2.1-4.194-3.226-6.129v-.323c.323-1.936.806-3.871,1.29-5.806h0c.161.161.161.323.323.645a135.692,135.692,0,0,1,5.645,13.226v.161c-.968.323-1.774.645-2.742.968" transform="translate(2.268 14.403)"/>
    </g>
    <g id="group-7" data-name="group" class="cls-1">
      <path id="path-7" data-name="path" class="cls-4" d="M10.606,34.727c.968-.323,1.774-.645,2.742-.968.484-.161.806-.161,1.29-.323.968-.323,1.774-.484,2.742-.806.484-.161.806-.161,1.29-.323.968-.161,1.774-.484,2.742-.645.484-.161.806-.161,1.29-.323l2.742-.484c.484,0,.806-.161,1.29-.161a17.961,17.961,0,0,1,2.742-.323c.484,0,.806-.161,1.29-.161.645,0,1.29-.161,1.774-.161a2.046,2.046,0,0,0,.968-.161c.806,0,1.613-.161,2.419-.161,1.613,0,3.226-.161,4.839,0a35.08,35.08,0,0,1,4.194.161,17.773,17.773,0,0,1,2.9.323l3.387.484a.97.97,0,0,1,.645.161h-.645c-.806,0-1.452-.161-2.258-.161s-1.613-.161-2.419-.161H40.929a19.521,19.521,0,0,0-3.065.161,12.206,12.206,0,0,0-2.419.161l-5.323.484c-2.258.323-4.355.645-6.613.968a56.953,56.953,0,0,0-8.71,2.1c-1.774.484-3.548,1.129-5.323,1.774-1.452.484-2.9,1.129-4.355,1.774-1.29.645-2.419,1.29-3.71,1.936a6.537,6.537,0,0,1-1.452.806.158.158,0,0,0-.161.161h0A23.593,23.593,0,0,1,1.9,39.4a27.576,27.576,0,0,1,3.71-2.1A4.974,4.974,0,0,1,6.735,36.5a16.75,16.75,0,0,1,1.613-.645c.323-.161.806-.323,1.129-.484a1.232,1.232,0,0,1,.806-.323c0-.161.161-.161.323-.323" transform="translate(-0.123 18.176)"/>
    </g>
    <g id="group-8" data-name="group" class="cls-1">
      <path id="path-8" data-name="path" class="cls-5" d="M33.268,9.852v5.323H32.3V8.4h.645l.161.161c1.452,1.613,2.9,3.387,4.355,5a.158.158,0,0,0,.161.161h0V8.4h.968v6.935h-.806a.158.158,0,0,1-.161-.161l-3.871-4.355a1.394,1.394,0,0,0-.484-.968" transform="translate(19.797 5.148)"/>
    </g>
    <g id="group-9" data-name="group" class="cls-1">
      <path id="path-9" data-name="path" class="cls-2" d="M7.455,36.042c-.323.161-.806.323-1.129.484a16.739,16.739,0,0,1-1.613.645A24.28,24.28,0,0,0,3.1,34.429v-.323c0-.806.161-1.774.161-2.581.161-.968.161-1.774.323-2.742V28.3c.323.645.645,1.129.968,1.774.968,2.1,1.935,4.032,2.9,5.968h0" transform="translate(1.9 17.345)"/>
    </g>
    <g id="group-10" data-name="group" class="cls-1">
      <path id="path-10" data-name="path" class="cls-6" d="M47.4,18.348a5.563,5.563,0,0,1,1.452,1.935l.968,1.452H48.693a10.849,10.849,0,0,0-1.129-1.774,3.519,3.519,0,0,0-.645-.806c-.323-.484-.806-.484-1.452-.484v3.065H44.5V14.8h2.419a1.853,1.853,0,0,1,1.129,3.065l-.323.323c0,.161-.161.161-.323.161m-1.774-.484h1.129a.9.9,0,0,0,.806-.968,1.08,1.08,0,0,0-.645-1.129,3.551,3.551,0,0,0-1.29-.161Z" transform="translate(27.274 9.071)"/>
    </g>
    <g id="group-11" data-name="group" class="cls-1">
      <path id="path-11" data-name="path" class="cls-7" d="M47.7,8.4h2.258a1.9,1.9,0,0,1,1.774,1.613A1.757,1.757,0,0,1,50.6,11.948c1.129.806,1.613,2.258,2.419,3.226H51.894l-.161-.161c-.323-.484-.645-1.129-.968-1.613-.161-.323-.484-.484-.645-.806-.323-.484-.806-.484-1.452-.484v2.9H47.7Zm.968,2.9a3.551,3.551,0,0,0,1.29-.161c.484,0,.645-.484.806-.968a.975.975,0,0,0-.484-.968,4.465,4.465,0,0,0-1.452-.161V11.3Z" transform="translate(29.236 5.148)"/>
    </g>
    <g id="group-12" data-name="group" class="cls-1">
      <path id="path-12" data-name="path" class="cls-8" d="M32.3,8.461h.968v4.194a3.251,3.251,0,0,1-.484,1.774,2.3,2.3,0,0,1-1.935.968,3.971,3.971,0,0,1-1.935-.161,2.272,2.272,0,0,1-1.613-2.1V8.3h.968v4.839c0,.645.484.968.968,1.29a2.443,2.443,0,0,0,2.1-.161,1.41,1.41,0,0,0,.806-1.452V8.461Z" transform="translate(16.732 5.087)"/>
    </g>
    <g id="group-13" data-name="group" class="cls-1">
      <path id="path-13" data-name="path" class="cls-9" d="M32.868,14.861v4.516A1.369,1.369,0,0,0,34,20.668a2.368,2.368,0,0,0,2.1-.161,1.218,1.218,0,0,0,.645-1.129V14.861h.968v4.194A2.689,2.689,0,0,1,35.126,21.8a4.091,4.091,0,0,1-1.935-.323,2.325,2.325,0,0,1-1.29-2.1V14.7h.968Z" transform="translate(19.552 9.01)"/>
    </g>
    <g id="group-14" data-name="group" class="cls-1">
      <path id="path-14" data-name="path" class="cls-10" d="M33.674,21.735h-.806l-.161-.161A18.914,18.914,0,0,1,31.9,19.8c0-.161-.161-.161-.323-.161H29c-.161,0-.161,0-.323.161-.161.645-.484,1.129-.645,1.774,0,.161-.161.161-.323.161H26.9c.161-.484.484-.968.645-1.452C28.352,18.51,29,16.735,29.8,15.123c.161-.161.161-.323.323-.323a.838.838,0,0,1,.645.323c.968,2.1,1.935,4.355,2.9,6.452,0,0,0,0,0,.161m-3.387-5.484-.968,2.419h2.1a16.28,16.28,0,0,1-1.129-2.419" transform="translate(16.487 9.071)"/>
    </g>
    <g id="group-15" data-name="group" class="cls-1">
      <path id="path-15" data-name="path" class="cls-10" d="M50.236,19.664c-.323.645-.484,1.29-.806,1.935,0,.161-.161.161-.323.161H48.3a26.888,26.888,0,0,0,1.29-3.226c.484-1.129.968-2.419,1.452-3.548,0-.161.161-.323.323-.161h.323a.158.158,0,0,1,.161.161c.968,2.258,1.935,4.516,3.065,6.774v.161h-.806c-.161,0-.161,0-.323-.161-.323-.645-.484-1.129-.806-1.774l-.161-.161a12.239,12.239,0,0,0-2.581-.161m.323-.968h2.1c-.323-.806-.806-1.613-1.129-2.419a15.139,15.139,0,0,1-.968,2.419" transform="translate(29.603 9.046)"/>
    </g>
    <g id="group-16" data-name="group" class="cls-1">
      <path id="path-16" data-name="path" class="cls-10" d="M58.6,21.8c.323-.645.484-1.29.806-1.935.645-1.613,1.452-3.226,2.1-4.839a.347.347,0,0,1,.323-.323h.323a.158.158,0,0,1,.161.161c.968,2.258,2.1,4.516,3.064,6.774h-.806l-.161-.161A18.916,18.916,0,0,1,63.6,19.7c0-.161-.161-.161-.323-.161H60.7c-.161,0-.161,0-.323.161-.161.645-.484,1.129-.645,1.774,0,.161-.161.161-.323.161a1.209,1.209,0,0,1-.806.161m3.387-5.484-.968,2.419h2.1a16.28,16.28,0,0,1-1.129-2.419" transform="translate(35.916 9.01)"/>
    </g>
    <g id="group-17" data-name="group" class="cls-1">
      <path id="path-17" data-name="path" class="cls-11" d="M64.668,12.271v2.1h3.065v.806H63.7V8.4h3.871v.806h-2.9v2.1H67.41v.968Z" transform="translate(39.042 5.148)"/>
    </g>
    <g id="group-18" data-name="group" class="cls-1">
      <path id="path-18" data-name="path" class="cls-6" d="M47.971,14.368v.806H44.1V8.4h3.871v.806h-2.9v2.1H47.81v.968H45.068v2.1Z" transform="translate(27.029 5.148)"/>
    </g>
    <g id="group-19" data-name="group" class="cls-1">
      <path id="path-19" data-name="path" class="cls-7" d="M70.648,9.714c-.323-.161-.806-.323-1.129-.484a1.028,1.028,0,0,0-.968,0,.845.845,0,0,0-.323,1.29l.645.645,1.452.968a1.814,1.814,0,0,1,0,2.9,2.6,2.6,0,0,1-1.452.484,2.725,2.725,0,0,1-1.613-.484l-.161-.161V13.747c.323.161.484.484.806.645a1.645,1.645,0,0,0,1.452.323.866.866,0,0,0,.484-1.452,1.61,1.61,0,0,0-.807-.645,8.944,8.944,0,0,1-1.29-.968,1.5,1.5,0,0,1-.484-1.936,1.968,1.968,0,0,1,1.452-1.29,2.776,2.776,0,0,1,1.936.323c.161,0,.161.161.161.323a.97.97,0,0,0-.161.645" transform="translate(41.126 5.124)"/>
    </g>
    <g id="group-20" data-name="group" class="cls-1">
      <path id="path-20" data-name="path" class="cls-7" d="M55.41,9.9a3.415,3.415,0,0,0-1.129-.484h-.968a.722.722,0,0,0-.323,1.29c.161.161.484.323.645.484l1.452.968a1.813,1.813,0,0,1,0,2.9,2.06,2.06,0,0,1-1.935.323,7.863,7.863,0,0,1-1.129-.484c-.161,0-.161-.161-.161-.323v-.968a2.227,2.227,0,0,0,.645.484,1.986,1.986,0,0,0,1.613.323.866.866,0,0,0,.484-1.452,1.61,1.61,0,0,0-.806-.645l-1.452-.968a1.494,1.494,0,0,1-.484-1.935,1.968,1.968,0,0,1,1.452-1.29,2.776,2.776,0,0,1,1.935.323c.161.484.161.484.161.645V9.9" transform="translate(31.687 4.94)"/>
    </g>
    <g id="group-21" data-name="group" class="cls-1">
      <path id="path-21" data-name="path" class="cls-8" d="M40.332,16.337a2.4,2.4,0,0,0-1.452-.645,1.209,1.209,0,0,0-.806.161.693.693,0,0,0-.323,1.129,1.61,1.61,0,0,0,.806.645c.323.161.645.484.968.645a2.024,2.024,0,0,1,.968,1.774,1.658,1.658,0,0,1-1.613,1.774,3.134,3.134,0,0,1-2.1-.484c-.161,0-.161-.161-.161-.323v-.968l.323.323a2.071,2.071,0,0,0,1.613.645.884.884,0,0,0,.968-.645A1,1,0,0,0,39.2,19.24c-.323-.323-.645-.484-.968-.806-.323-.161-.645-.484-.968-.645a1.611,1.611,0,0,1-.645-1.774,1.75,1.75,0,0,1,1.29-1.29,3.225,3.225,0,0,1,2.1.323c.161,0,.161.161.161.323a2.045,2.045,0,0,1,.161.968" transform="translate(22.41 8.986)"/>
    </g>
    <g id="group-22" data-name="group" class="cls-1">
      <path id="path-22" data-name="path" class="cls-8" d="M39.3,8.427h0c.323,0,.806-.161.968,0a1.232,1.232,0,0,1,.323.806c.645,1.29,1.129,2.742,1.774,4.032,0-.161.161-.161.161-.323.645-1.452,1.29-2.9,1.774-4.355,0-.161.161-.161.323-.161h.806c-.161.484-.484.968-.645,1.452-.806,1.774-1.452,3.548-2.258,5.323l-.161.161A.158.158,0,0,1,42.2,15.2L39.3,8.427" transform="translate(24.087 5.121)"/>
    </g>
    <g id="group-23" data-name="group" class="cls-1">
      <path id="path-23" data-name="path" class="cls-8" d="M57,9.206V8.4h5.806v.806H60.387v5.968h-.968V9.206Z" transform="translate(34.935 5.148)"/>
    </g>
    <g id="group-24" data-name="group" class="cls-1">
      <path id="path-24" data-name="path" class="cls-12" d="M45.706,14.8v.806H43.287v6.129h-.968V15.606H39.9V14.8Z" transform="translate(24.455 9.071)"/>
    </g>
    <g id="group-25" data-name="group" class="cls-1">
      <path id="path-25" data-name="path" class="cls-6" d="M57.532,20.768v.968H53.5V14.8h.968v5.968Z" transform="translate(32.79 9.071)"/>
    </g>
    <g id="group-26" data-name="group" class="cls-1">
      <rect id="rectangle-48" data-name="rectangle" class="cls-13" width="0.968" height="6.935" transform="translate(91.935 23.871)"/>
    </g>
    <g id="group-27" data-name="group" class="cls-1">
      <rect id="rectangle-49" data-name="rectangle" class="cls-14" width="0.968" height="6.935" transform="translate(60.806 13.548)"/>
    </g>
    <g id="group-28" data-name="group" class="cls-1">
      <rect id="rectangle-50" data-name="rectangle" class="cls-13" width="0.968" height="6.935" transform="translate(99.355 13.548)"/>
    </g>
    <g id="group-29" data-name="group" class="cls-1">
      <rect id="rectangle-51" data-name="rectangle" class="cls-13" width="0.968" height="6.935" transform="translate(89.194 13.548)"/>
    </g>
    <g id="group-30" data-name="group" class="cls-1">
      <path id="path-26" data-name="path" class="cls-4" d="M.161,36.4,0,36.561H0L.161,36.4h0" transform="translate(0 22.31)"/>
    </g>
    <g id="group-31" data-name="group" class="cls-1">
      <path id="path-27" data-name="path" class="cls-15" d="M27,25.558V23.3h.645c.806,0,1.29.323,1.29,1.129a1.232,1.232,0,0,1-.323.806,1.363,1.363,0,0,1-.968.323H27Zm.484-1.935v1.613h.323c.323,0,.484,0,.645-.161s.161-.323.161-.645a.762.762,0,0,0-.806-.806Z" transform="translate(16.548 14.281)"/>
    </g>
    <g id="group-32" data-name="group" class="cls-1">
      <rect id="rectangle-52" data-name="rectangle" class="cls-15" width="0.323" height="2.258" transform="translate(46.129 37.581)"/>
    </g>
    <g id="group-33" data-name="group" class="cls-1">
      <path id="path-28" data-name="path" class="cls-15" d="M29.2,25.458v-.323l.161.161h.806l.161-.161v-.161l-.161-.161a4821.58,4821.58,0,0,1-.323-.323.158.158,0,0,1-.161-.161l-.161-.161-.161-.161v-.484l.161-.161a.563.563,0,0,1,.323-.161h.806v.323a.593.593,0,0,0-.484-.161h-.323l-.161.161v.323l.161.161a3857.743,3857.743,0,0,1,.323.323l.161.161.161.161.161.161V25.3l-.161.161a.563.563,0,0,1-.323.161h-.645c-.161,0-.161,0-.323-.161h0" transform="translate(17.897 14.219)"/>
    </g>
    <g id="group-34" data-name="group" class="cls-1">
      <path id="path-29" data-name="path" class="cls-15" d="M32.074,25.4c-.161.161-.323.161-.645.161a1.129,1.129,0,1,1,0-2.258.593.593,0,0,1,.484.161v.323a.593.593,0,0,0-.484-.161.97.97,0,0,0-.645.161c-.161.161-.161.323-.161.645s0,.484.161.645a.806.806,0,0,0,.968,0V25.4Z" transform="translate(18.571 14.281)"/>
    </g>
    <g id="group-35" data-name="group" class="cls-1">
      <path id="path-30" data-name="path" class="cls-15" d="M32.729,25.558a1.129,1.129,0,1,1,0-2.258c.323,0,.484.161.806.323a1.169,1.169,0,0,1,0,1.613c-.161.323-.484.323-.806.323m0-1.935a.593.593,0,0,0-.484.161c-.161.161-.161.323-.161.645s0,.484.161.645a.806.806,0,0,0,.968,0c.161-.161.161-.323.161-.645s0-.484-.161-.645c-.161,0-.323-.161-.484-.161" transform="translate(19.368 14.281)"/>
    </g>
    <g id="group-36" data-name="group" class="cls-1">
      <path id="path-31" data-name="path" class="cls-15" d="M35.2,23.3l-.806,2.258h-.484L33.1,23.3h.323l.484,1.613v.161h0v-.161L34.39,23.3Z" transform="translate(20.287 14.281)"/>
    </g>
    <g id="group-37" data-name="group" class="cls-1">
      <path id="path-32" data-name="path" class="cls-15" d="M35.99,25.558H34.7V23.3h1.129v.323h-.806v.645h.806v.323h-.806v.645h.968Z" transform="translate(21.268 14.281)"/>
    </g>
    <g id="group-38" data-name="group" class="cls-1">
      <path id="path-33" data-name="path" class="cls-15" d="M37.636,25.558h-.484l-.323-.645a.158.158,0,0,0-.161-.161l-.161-.161h-.484v.968H35.7V23.3h.968c.161,0,.161,0,.161.161l.161.161v.484a.158.158,0,0,1-.161.161l-.161.161a.158.158,0,0,0-.161.161h.161l.161.161v.161l.161.161Zm-1.29-1.935v.806h.645v-.323c0-.161,0-.161-.161-.323a.563.563,0,0,0-.323-.161h-.161Z" transform="translate(21.881 14.281)"/>
    </g>
    <g id="group-39" data-name="group" class="cls-1">
      <path id="path-34" data-name="path" class="cls-15" d="M40.39,25.558H39.1V23.3h.484v1.935h.806Z" transform="translate(23.965 14.281)"/>
    </g>
    <g id="group-40" data-name="group" class="cls-1">
      <path id="path-35" data-name="path" class="cls-15" d="M41.49,25.558H40.2V23.3h1.129v.323h-.806v.645h.806v.323h-.806v.645h.968Z" transform="translate(24.639 14.281)"/>
    </g>
    <g id="group-41" data-name="group" class="cls-1">
      <path id="path-36" data-name="path" class="cls-15" d="M43.174,25.558h-.323l-.161-.484h-.806l-.161.484H41.4l.806-2.258h.161Zm-.806-.806-.323-.806v-.161h0v.161l-.323.806Z" transform="translate(25.374 14.281)"/>
    </g>
    <g id="group-42" data-name="group" class="cls-1">
      <path id="path-37" data-name="path" class="cls-15" d="M44.413,25.558h-.484l-.323-.645a.158.158,0,0,0-.161-.161l-.161-.161h-.161v.968H42.8V23.3h.968c.161,0,.161,0,.161.161l.161.161v.484a.158.158,0,0,1-.161.161l-.161.161a.158.158,0,0,0-.161.161h.161l.161.161v.161l.161.161Zm-1.29-1.935v.806h.645v-.323c0-.161,0-.161-.161-.323a.563.563,0,0,0-.323-.161h-.161Z" transform="translate(26.232 14.281)"/>
    </g>
    <g id="group-43" data-name="group" class="cls-1">
      <path id="path-38" data-name="path" class="cls-15" d="M45.974,25.558H45.49l-.968-1.613v-.161h0v1.774H44.2V23.3h.484l.968,1.613a.158.158,0,0,0,.161.161h0V23.3h.323v2.258Z" transform="translate(27.09 14.281)"/>
    </g>
    <g id="group-44" data-name="group" class="cls-1">
      <path id="path-39" data-name="path" class="cls-15" d="M48.99,25.558H47.7V23.3h.323v1.935h.968Z" transform="translate(29.235 14.281)"/>
    </g>
    <g id="group-45" data-name="group" class="cls-1">
      <path id="path-40" data-name="path" class="cls-15" d="M49.929,25.558H48.8V23.3h1.129v.323h-.806v.645h.806v.323h-.806v.645h.806Z" transform="translate(29.91 14.281)"/>
    </g>
    <g id="group-46" data-name="group" class="cls-1">
      <path id="path-41" data-name="path" class="cls-15" d="M51.735,25.558h-.323l-.161-.484h-.806l-.323.484H49.8l.806-2.258h.484Zm-.645-.806-.323-.806v-.161h0v.161l-.323.806Z" transform="translate(30.523 14.281)"/>
    </g>
    <g id="group-47" data-name="group" class="cls-1">
      <path id="path-42" data-name="path" class="cls-15" d="M51.4,25.558V23.3h.645c.806,0,1.29.323,1.29,1.129a1.232,1.232,0,0,1-.323.806,1.363,1.363,0,0,1-.968.323H51.4Zm.323-1.935v1.613h.323c.323,0,.484,0,.645-.161s.161-.323.161-.645a.762.762,0,0,0-.806-.806Z" transform="translate(31.503 14.281)"/>
    </g>
  </g>
</svg>
